<?xml version="1.0" encoding="UTF-8"?>
<svg id="Layer_2" data-name="Layer 2" xmlns="http://www.w3.org/2000/svg" viewBox="0 0 3165.35 471.77">
  <defs>
    <style>
      .cls-1 {
        fill: #ff9508;
        stroke-width: 0px;
      }
    </style>
  </defs>
  <g id="Layer_1-2" data-name="Layer 1">
    <g>
      <polygon class="cls-1" points="1866.11 471.77 2061.83 471.77 2061.83 401.54 1936.33 401.54 1936.33 353.34 2038.14 353.34 2038.14 283.12 1936.33 283.12 1936.33 236.99 2061.83 236.99 2061.83 166.77 1866.11 167.18 1866.11 471.77"/>
      <polygon class="cls-1" points="2087.17 165.52 2087.17 236.16 2145.34 236.16 2145.34 471.77 2215.57 471.77 2215.57 236.16 2274.16 236.16 2274.16 165.52 2087.17 165.52"/>
      <g>
        <g>
          <path class="cls-1" d="m2487.19,370.85h61.05v15.37c-31.98,23.26-78.07,19.94-106.73-8.72-32.39-32.39-32.39-84.72,0-117.11,31.98-31.98,85.14-31.98,117.11,0l49.84-49.84c-59.8-59.8-156.98-59.8-216.78,0-59.39,59.39-58.97,157.4,0,216.37,29.9,29.9,68.94,44.85,108.39,44.85,16.2,0,32.81-2.49,48.17-7.89v7.48h70.6v-170.69h-131.65v70.18Z"/>
          <path class="cls-1" d="m2875.07,166.11h-70.19v188.96c0,24.92-19.52,46.1-44.85,46.1-12.46,0-23.26-4.15-32.39-12.87-9.14-9.14-13.7-19.94-13.7-31.98v-190.21h-70.18v190.62c.41,31.56,12.87,59.8,34.88,81.81,21.6,21.18,49.84,32.81,80.98,32.81h1.25c63.12-1.25,115.45-53.16,114.21-116.7v-188.54Z"/>
          <polygon class="cls-1" points="3035.78 296.52 2973.06 164.04 2895.41 164.04 2999.64 384.97 2964.34 471.35 3040.34 471.35 3165.35 164.04 3089.35 164.04 3035.78 296.52"/>
        </g>
        <g>
          <polygon class="cls-1" points="58.14 471.77 128.33 471.77 128.33 236.3 186.88 236.3 186.88 165.7 0 165.7 0 236.3 58.14 236.3 58.14 471.77"/>
          <polygon class="cls-1" points="282.39 356.73 370.43 356.73 370.43 471.77 440.62 471.77 440.62 166.94 370.43 166.94 370.43 286.55 282.39 286.55 282.39 166.94 212.21 166.94 212.21 471.77 282.39 471.77 282.39 356.73"/>
          <polygon class="cls-1" points="662.79 401.58 537.37 401.58 537.37 353.41 639.12 353.41 639.12 283.23 537.37 283.23 537.37 237.13 662.79 237.13 662.79 166.94 467.19 167.36 467.19 471.77 662.79 471.77 662.79 401.58"/>
        </g>
        <path class="cls-1" d="m1640.96,268.59v-101.16h-69.88v162.29l-61.94,54.18c-32.43,28.36-88.65,24.11-119.18-6.41-15.3-16.13-23.98-35.98-23.98-57.89s8.68-42.18,23.98-58.31c31.84-31.84,83.94-32.25,116.19,0l49.21-49.21c-59.55-59.55-155.47-59.55-215.02,0-28.53,28.53-44.24,66.16-44.24,107.51s15.71,78.15,44.24,107.5c21.12,21.12,46.63,34.55,73.68,40.56,11.09,2.46,22.42,3.69,33.83,3.69,39.06,0,70.67-17.35,100.22-46.17l1.44-1.42,21.57-24.08v71.67h69.88v-95.21l97.58,95.21h100.9l-156.09-151.49-21.81-21.17,198.97-222.15-219.55,192.05Z"/>
        <path class="cls-1" d="m968.17,281.04c0-61.5-56.1-112.2-125.91-113.44h-70.22v304.17h70.22v-76.87c7.9-.42,14.96-.83,22.02-2.08l49.03,78.95h82.69l-67.32-108.87c24.93-20.36,39.48-49.03,39.48-81.86Zm-125.91,43.21v-86.02c30.33,1.25,55.68,19.95,55.68,42.8s-25.35,41.97-55.68,43.21Z"/>
        <path class="cls-1" d="m981.05,318.85c0,84.35,68.15,152.5,152.5,152.5s152.92-68.15,152.92-152.5-68.56-152.5-152.92-152.5-152.5,68.15-152.5,152.5Zm234.78,0c0,45.29-36.98,82.28-82.28,82.28s-82.28-36.98-82.28-82.28,36.98-82.28,82.28-82.28,82.28,36.98,82.28,82.28Z"/>
        <path class="cls-1" d="m1897.62,71.41v-8s26.31-26.42,26.31-26.42c4.6-4.62,7.91-10.37,9.58-16.67,1.33-4.98,2.05-10.1,2.16-15.26l.11-5.06-5.06.12c-5.15.13-10.27.87-15.25,2.21h0c-6.3,1.7-12.03,5.02-16.63,9.64l-26.31,26.4h-8.05c-2.28.02-4.38,1.27-5.48,3.27l-10.87,19.96,1.09,4.48,7.2-8.56,22.07,22-8.53,7.23,4.49,1.07,19.92-10.94c2-1.1,3.24-3.2,3.24-5.49Z"/>
      </g>
    </g>
  </g>
</svg>