<?xml version="1.0" encoding="UTF-8"?>
<svg id="Layer_2" xmlns="http://www.w3.org/2000/svg" viewBox="0 0 1490.49 398.29">
  <defs>
    <style>
      .cls-1 {
        fill: #999;
      }
    </style>
  </defs>
  <g id="Layer_1-2" data-name="Layer_1">
    <g>
      <path class="cls-1" d="M496.35,95.76c0-22.04.27-44.08-.14-66.11-.15-7.84,1.49-11.3,10.42-11.14,30.43.53,60.89.73,91.3-.04,12.83-.32,9.55,7.75,9.8,14.47.27,7.29,1.88,14.56-10.41,13.97-20.57-.99-41.24.11-61.84-.45-8.51-.23-10.64,2.66-10.66,10.85-.08,22.55-.47,22.55,22.33,22.55,14.24,0,28.55.91,42.69-.28,11.87-1,12.4,4.79,11.92,13.71-.42,7.81,1.64,15.22-11.27,14.34-18.08-1.24-36.32,0-54.47-.46-7.7-.19-11.13,1.16-11.24,10.14-.35,27.71-.8,27.7,27.37,27.7,16.2,0,32.43.57,48.59-.19,11.97-.56,9.18,7.43,8.94,13.62-.25,6.37,3.96,15.44-9.15,15.13-31.88-.76-63.79-1.07-95.68-.91-8.66.04-9.3-3.98-9.21-10.77.28-22.04.1-44.09.1-66.14.21,0,.42,0,.62,0Z"/>
      <path class="cls-1" d="M626.3,120.32c0-13.21-.25-26.42.15-39.62.13-4.25-2.92-11.89,4.35-11.74,7.75.15,18.46-5.83,23.02,4.38,2.89,6.47,4.01,2.82,6.43,1.06,13.62-9.97,28.29-10.88,42.9-3.33,14.43,7.46,17.52,21.15,17.35,36.17-.22,18.59-.75,37.21.18,55.75.68,13.67-8.36,9.93-15.51,10.48-7.52.57-13.03.3-12.34-10.32,1.01-15.59.43-31.29.21-46.94-.25-17.59-6.76-26.47-18.81-26.35-12.48.12-19.71,9.92-19.88,27.35-.14,15.16-.86,30.39.21,45.48.95,13.44-7.7,10.6-15.13,10.77-7.43.18-14.78,1.47-13.91-10.61,1.02-14.11.24-28.34.24-42.52.18,0,.36,0,.54,0Z"/>
      <path class="cls-1" d="M904.21,323.61c0-13.69-.17-27.38.11-41.07.08-3.84-2.27-10.55,4.52-10.14,7.59.46,17.59-5.34,22.32,3.42,2.6,4.82,1.82,6.04,6.64,2.38,13.34-10.13,28.2-10.97,42.86-3.62,15.35,7.7,17.48,22.19,17.22,37.59-.29,16.62-.43,33.25.07,49.86.3,9.92-.09,16.09-13.54,15.68-11.91-.36-14.96-3.71-14.27-15,.95-15.59.28-31.28.22-46.92-.05-12.22-4.7-21.86-18.05-22.15-12.93-.28-19.5,8.73-20.11,20.79-.88,17.56-1.14,35.21-.42,52.76.45,10.98-5.84,10.45-12.99,9.93-6.56-.48-15.43,3.38-14.74-9.55.78-14.63.18-29.32.18-43.99Z"/>
      <path class="cls-1" d="M766.31,34.13c10.29-2.57,13.69,2.72,12.21,13.43-.6,4.32.23,8.82-.17,13.19-.58,6.26,1.52,8.98,8.16,8.34,5.34-.52,10.87.53,16.15-.23,11.13-1.6,14.62,2.59,13.76,13.65-.56,7.24-1.79,10-9.81,10.23-28.2.78-28.19,1.15-28.19,28.97,0,2.94-.07,5.87.01,8.81.2,7.12-1.99,15.49,7.26,18.77,8.72,3.09,11.02-3.75,15.27-9.52,5.93-8.05,14.28-.62,21.26.36,6.45.91,3.2,6.93,1.99,10.76-5.78,18.33-21.59,27.08-43.1,24.11-18.8-2.6-29.27-14.38-29.67-33.87-.26-12.72-.53-25.47.11-38.16.42-8.41-2.5-11.92-10.74-10.42-10.92,1.98-10.01-5.03-10.16-12.2-.16-7.57-.13-13.87,10.41-11.92,8.71,1.61,11.31-2.87,10.38-10.84-.39-3.38-.09-6.84-.06-10.27q.1-13.2,14.91-13.18Z"/>
      <path class="cls-1" d="M1341.06,68.08c7.83-.44,15.92,1.05,23.23,5.68,5.53,3.5,11.94,8.64,11.32,14.34-.76,7-10.24,7.87-15.7,11.72-3.7,2.61-5-1.02-6.63-3.16-3.91-5.12-9.15-7.2-15.42-6.73-5.07.38-10.25,1.59-11.43,7.31-1.31,6.36,3.84,8.44,8.67,9.72,9.44,2.5,19.32,3.71,28.43,7.05,20.66,7.59,26.42,33.14,11.68,49.29-18.46,20.22-60.46,17.16-75.44-5.65-2.39-3.64-7.78-9.11-.2-11.71,6.36-2.19,11.6-15.41,20.47-3.66,7.43,9.85,17.34,11.92,28.79,9.46,4.18-.9,7.33-3.12,8.02-7.49.79-5.03-1.77-8.76-6.36-10.26-5.54-1.81-11.35-2.89-17.08-4.04-23.31-4.7-34.79-16.34-33.28-33.89,1.48-17.14,17.28-28.13,40.94-27.98Z"/>
      <path class="cls-1" d="M1158.84,120.71c0-11.75-.26-23.51.12-35.25.17-5.12-2.96-12.97,2.44-14.82,7.52-2.58,19.03-4.56,23.76.83,5.56,6.33,6.85,2.3,10.47.21,19.04-10.99,39.29-1.62,43.54,20.04,3.6,18.36-4.85,25.76-22.69,20.59-5.59-1.62-3.13-4.94-3.3-7.93-.44-7.85-4.08-13.61-12.31-13.58-8.77.03-13.25,5.87-13.35,14.39-.22,18.6-.87,37.25.16,55.79.65,11.62-3.63,13.65-14.2,13.59-10.82-.06-16.08-1.79-14.91-14.24,1.23-13.1.28-26.41.28-39.63Z"/>
      <path class="cls-1" d="M524.94,299.31c0,22.03-.63,44.09.23,66.09.54,13.76-8.6,9.86-15.56,10.1-6.99.24-14.39,2.49-14.18-10.07.73-44.55.72-89.12.03-133.66-.22-14.18,9-9.47,15.73-9.85,6.85-.38,14.64-2.75,14.11,9.84-.96,22.48-.27,45.04-.27,67.56-.03,0-.06,0-.09,0Z"/>
      <path class="cls-1" d="M943.8,121.67c0-12.72-.31-25.46.16-38.16.18-4.8-3.35-12.52,3.7-13.8,7.69-1.4,17.74-4.29,23.48,1.96,3.82,4.16,3.65,3.77,7.45.97,10.56-7.78,22.25-7.59,33.13-1.06,12.15,7.29,13.06,19.65,12.47,32.35-.44,9.6-7.63,7.68-12.87,7.04-5.12-.63-14.19,4.94-14.23-6.5-.03-8.95-3.98-14.54-12.91-14.01-8.96.53-12.07,7.6-12.25,15.61-.42,19.06-1.32,38.17-.44,57.19.6,13.04-7.34,10.51-14.96,11.07-8.8.65-13.7-.9-12.97-11.56.93-13.64.23-27.39.23-41.09Z"/>
      <path class="cls-1" d="M572.85,339.14c0,7.83.31,15.67-.12,23.48-.25,4.53,2.85,11.51-3.02,13-6.86,1.74-14.7,1.29-21.77-.01-4.73-.87-2.77-6.63-2.79-10.26-.14-26.42-.26-52.84.1-79.26.06-4.74-3.46-12.32,3.32-13.86,7.3-1.66,19.32-4.09,22.24.96,5.43,9.38,7.58,2.33,11.05.35,18.69-10.71,40.22-.51,43.36,20.62,2.57,17.28-.27,20.07-18.12,19.42-5.73-.21-8.99-.7-8.6-7.83.45-8.17-4.7-13.05-12.77-12.73-8.14.33-12.14,6.4-12.55,13.85-.59,10.73-.15,21.51-.15,32.28-.06,0-.12,0-.18,0Z"/>
      <path class="cls-1" d="M748.82,298.36c0-21.54.58-43.09-.26-64.6-.4-10.17,3.32-12.62,12.45-11.63,7.22.78,15.14-2.75,14.87,10.74-.88,44.52-.77,89.08-.05,133.61.2,12.57-7.27,9.7-14.13,9.98-7.56.3-14.26,1.34-13.74-10.6.97-22.46.28-44.99.28-67.5.19,0,.38,0,.57,0Z"/>
      <path class="cls-1" d="M1253.4,123.21c0-14.69.59-29.41-.19-44.06-.61-11.4,6.68-9.98,13.38-9.51,6.38.45,15.44-3.92,15.21,9.14-.49,28.88-.41,57.78-.04,86.66.17,13.39-9.46,7.87-15.55,8.63-6.99.88-13.72,1.35-13.01-9.76.87-13.66.21-27.41.21-41.12Z"/>
      <path class="cls-1" d="M1282.14,39.17c2.91,11.96-1.21,16.1-14,16.01-12-.09-15.8-2.96-15.49-15.33.28-11.23,1.6-16.55,14.83-16,11.54.48,18.2,2.15,14.65,15.31Z"/>
      <path class="cls-1" d="M422.34,277.6c-2-39.67-25.66-75.06-56.5-100.16-11.45-9.38-25.86-17.4-30.04-32.53-4.96-24.71-7.47-50.62-18.6-73.49-46.13-100.76-181.69-93.06-218.51,11.36-4.73,12.56-7.84,25.73-9.79,38.97-1.5,10.43-2.13,21.1-6.59,29.44-4.27,8.72-12.63,15-21.39,21.47C31.27,195.71,4.14,227.97.67,266.47c-1.2,21.03-1.69,43.37,6.59,62.96,20.26,49.81,77.38,75.82,128.4,67.24,12.33-1.71,23.84-4.45,35.59-8.44,18.15-6.54,34.76-16.84,53.44-9.53,15.88,6.25,31.9,13.48,48.76,16.13,77.68,17.56,152.05-33.98,148.93-116.48l-.04-.75ZM178.24,280.41c-17.93-23.46-34.29-51.37-38.43-80.98-2.07-11.07,7.85-16.1,17.15-18.81,23.42-9.95,49.93-10.51,74.72-8.31,14.08,1.91,33.88,4.08,44.2,12.74,5.45,5.71,2.56,14.36.78,21.46-9.55,34.78-26.82,68.96-54.41,92.73-15.22,13.36-32.49-7.03-43.54-18.27l-.48-.57ZM223.4,49.59c29.22,6.9,48.3,33.83,54.46,62.14,2.42,8.18,3.29,16.11.55,19.33-2.61,3.38-8.59,2.73-13.18,1.92-10.09-2-21.72-4.47-33.28-5.28-16.32-.94-32.29-.7-48.19.61-10.03.63-21.91,3.95-31.27,4.62-3.28.12-5.99-.43-7.94-1.89-9.17-8.31,3.83-37.2,8.54-46.36,6.79-11.9,15.06-22.23,27.03-27.54,13.17-5.46,28.65-11.09,42.64-7.72l.65.15ZM98.36,348.26c-35.52-5.62-59.14-45.26-51.43-79.58,4.43-18.42,16.85-35.1,30.8-48.04,6.1-5.6,14.48-9.63,19.24-1.33,13.22,32.6,26.84,64.45,49.9,91.71,5.06,7.64,17.41,15.75,14.19,25.71-7.82,12.51-47.62,13.46-62.06,11.61l-.65-.08ZM270.07,345.41c-16.27-4.34-16.38-13.02-6.91-23.67,6.33-7.65,12.71-15.36,18.87-23.2,13.34-16.88,23.9-36.31,32.11-55.83,4.73-8.51,5.82-29.47,18.75-27.05,14.75,5.91,25.55,21.93,33.77,34.52,7.73,10.79,7.94,19.83,7.25,31.5-.82,9.18.11,19.63-3.49,27.82-8.24,17.1-21.92,31.01-41.03,36.1-18.12,4.37-40.25,4.5-58.59.03l-.72-.22Z"/>
      <g>
        <path class="cls-1" d="M1063.87,83.13c3.96-17.83-7.38-13.29-15.36-14.26-10.87-1.32-10.2,5.41-10.21,12.7-.03,42.14.07,84.28-.7,126.41-.22,11.76,6.99,9.65,13.4,9.22,6.24-.42,15.76,4.32,15.14-9.01-.65-13.9-.14-27.85-.14-42.78,26.67,15.79,52.38,12.87,67.58-6.4,17.21-21.82,14.79-61.26-4.9-79.89-17.36-16.42-40.74-15.73-64.8,4.01ZM1091.31,151.56c-14.73.05-26.68-12.97-26.89-29.3-.22-16.88,12.18-30.51,27.41-30.15,15,.35,25.72,12.87,25.64,29.93-.08,16.98-11.16,29.47-26.17,29.52Z"/>
        <path class="cls-1" d="M1107.05,222.93c-7.42.06-14.7-1.51-13.93,10.61,1.02,15.93.25,31.98.25,50.83-24.31-18.4-48.17-17.8-64.92-.59-18.19,18.68-20.1,55.82-4.08,77.39,6.41,8.64,14.78,14.42,25.23,16.46,15.92,3.1,30.99,1.38,44.1-12.93-.77,19.26,11.69,10.95,18.72,12.29,9.5,1.81,8.16-5.6,8.16-11.34.01-44-.43-88.01.29-131.99.2-11.92-6.27-10.78-13.83-10.72ZM1067.39,354.57c-15.14-.06-26.29-12.56-26.28-29.44,0-17.71,11.59-30.44,27.28-29.99,14.77.42,25.63,13.28,25.51,30.24-.11,16.79-11.43,29.25-26.51,29.19Z"/>
        <path class="cls-1" d="M884.27,315.35c.03-17.01-3.26-32.87-20.68-40.34-19.49-8.36-39.19-8.55-57.1,4.67-7.15,5.28-14.49,12.8-12.78,21.57.72,3.72,2.89,5.74,6.23,6.76,4.22,1.29,8.8.62,12.81-1.21l6.69-3.06c2.87-1.31,5.7-2.75,8.35-4.45,6.72-4.33,13.65-3.77,20.53,1.15,2.41,1.73,4.56,4.38,3.32,7.48-1.06,2.65-4.08,1.88-6.49,1.89-6.97.02-8.72-.56-17.75,1.25-4.47.9-8.8,2.44-13.02,4.17l-.05.02c-17.4,7.07-24.58,20.09-21.12,38.37,2.84,15,16.21,24.99,33.4,25.06,11.8.05,21.95-3.82,30.98-13.91-.24,17.72,11.86,10.87,19.61,11.49,10.11.82,6.84-7.43,6.94-12.51.32-16.13.1-32.26.12-48.4ZM835.89,356.6c-10.95.58-21-2.2-21.53-12.06-.52-9.86,10.57-15.17,21.53-15.75,10.95-.58,17.62,3.78,18.14,13.64.52,9.86-7.19,13.58-18.14,14.17Z"/>
        <path class="cls-1" d="M724.66,340.71c-2.76-1.5-7.95,3.97-19.86,7.95-10.72,3.57-23.84,3.97-31.78-3.97-2.04-2.04-4.07-3.61-3.49-6.81.69-3.78,4.4-3.23,7.14-3.33,8.27-.32,16.25,1.12,24.77-.44,5.78-1.06,14.43-1.28,22.88-4.2,4.08-1.41,6.77-5.38,6.63-9.69-.9-27.74-11.03-42.91-32.27-48.73-22.57-6.18-44.49,1.92-56.34,20.81-13.17,21.01-10.93,52.06,5.03,69.85,19.16,21.35,58.02,22.15,76.61,1.58,12.85-14.21,10.7-17.56.67-23.01ZM665.07,308.93c0-5.73,3.9-12.05,9.71-14.09,3.61-1.27,7.67-2.24,11.42-1.96,8.43.62,14.47,4.84,16.76,13.26,1.84,6.77-2.13,6.77-6.1,6.77h-7.95c-1.96,0-7.95,0-11.92,0-4.86,0-11.92,0-11.92-3.97Z"/>
        <path class="cls-1" d="M926.03,141.22c-6.6-1.98-13.36-13.61-21.78-.95-9.75,14.65-31.29,14.43-41.19.37-2.47-3.51-6.06-7.77-3.88-11.87,1.95-3.67,7.12-1.51,10.84-1.66,6.86-.27,13.74-.08,20.61-.08,9.33,0,18.67-.34,27.97.11,6.48.31,8.4-2.88,9.33-8.49,3.54-21.29-11.19-44.35-32.14-49.9-26.16-6.94-50.95,4.62-60.76,28.33-11.29,27.31-1.61,59.2,21.91,72.17,24.26,13.37,55.88,6.44,69.02-15.52,2.22-3.71,9.08-9.8.07-12.5ZM895.66,95.25c2.5,2.47,4.73,5.4,4.09,8.91-.89,4.95-5.35,3.04-8.34,3.11-10.48.22-20.97.09-32.07.09,8.03-17.92,25.23-23.04,36.32-12.11Z"/>
        <path class="cls-1" d="M1488.58,142.55c-10.22-5.04-18.63-11.43-28.24,3.96-7.21,11.53-31.25,5.43-37.69-7.33-3.55-7.05-3.99-11.79,6.64-11.43,16.67.56,33.38.15,50.07.14,4.41,0,8.15.43,9.33-6.13,4.08-22.52-9.44-45.89-30.95-52.04-31.83-9.09-60.5,9.89-65.43,43.33-4.01,27.23,9.63,52.04,33.32,60.57,25.16,9.06,49.73.41,63.2-22.26,2.18-3,2.35-5.95-.24-8.82ZM1428.59,95.19c3.9-3.27,8.82-3.95,13.66-4.75,5.34.82,10.71,1.57,14.69,5.77,2.72,2.86,5.67,6.2,4.18,10.21-1.49,4.01-5.88,2.47-9.12,2.56-6.35.17-12.73.35-19.05-.07-4.02-.27-9.99,1.74-11.36-3.4-1.18-4.42,3.68-7.53,7.01-10.32Z"/>
      </g>
    </g>
  </g>
</svg>