<?xml version="1.0" encoding="UTF-8"?>
<svg id="Layer_2" xmlns="http://www.w3.org/2000/svg" viewBox="0 0 541.36 553.54">
  <defs>
    <style>
      .cls-1 {
        fill: #999;
      }
    </style>
  </defs>
  <g id="Layer_1-2" data-name="Layer_1">
    <g>
      <path class="cls-1" d="M541.36,553.54H0V229.05c4.01.26,8.02.74,12.03.74,172.27.04,344.53.03,516.8.03,3.96,0,7.92,0,12.39,0,0,4.93,0,8.66,0,12.4.05,103.77.09,207.54.14,311.31ZM315.88,358.27c21.25-21.68,41.51-42.35,60.78-62.02-3.35-4.13-6.56-8.08-10.73-13.22-20.48,21.29-40.43,42.03-62.16,64.61-3.31-22.18-6.17-41.39-9.15-61.37-6,.81-11.26,1.52-17.04,2.29,3.73,26.74,7.2,52.71,11.22,78.59.35,2.27,4.01,5.28,6.53,5.75,11.9,2.19,23.94,3.64,35.95,5.3,13.9,1.92,27.81,3.77,42.26,5.72.91-6.04,1.66-11.07,2.55-17.01-19.91-2.86-39.23-5.63-60.2-8.64ZM163.72,487.99c3.97,4.25,7.27,7.79,12.38,13.26,20.66-21.66,40.87-42.85,62.47-65.49,3.21,22.07,6.04,41.56,8.97,61.68,6.09-1.1,11.05-1.99,16.16-2.91,0-2.44.19-4.17-.03-5.83-2.94-22.03-6.36-44.01-8.71-66.1-1.01-9.46-4.49-13.71-14.27-13.55-6.27.1-12.56-1.69-18.85-2.56-17.61-2.43-35.22-4.82-53.55-7.32-.82,6.16-1.52,11.38-2.25,16.82,20.48,2.95,39.71,5.72,60.71,8.75-21.79,21.87-42.13,42.26-63.04,63.25ZM303.71,438.2c.98-.57,1.95-1.14,2.93-1.7,19.81,20.92,39.61,41.83,60,63.37,4.82-4.98,8.37-8.64,13.18-13.6-20.83-20.78-41.32-41.23-62.44-62.31,20.12-2.9,39.41-5.67,59.5-8.56-.92-5.82-1.71-10.81-2.54-16-1.66-.21-2.79-.6-3.84-.45-25.47,3.45-50.95,6.83-76.36,10.71-1.97.3-4.48,4.02-4.89,6.47-2.39,14.24-4.3,28.56-6.22,42.87-1.55,11.58-2.89,23.19-4.38,35.23,6.34.9,11.32,1.6,16.73,2.37,2.88-20.16,5.61-39.28,8.34-58.39ZM167.61,384.62c28.87-4.03,56.5-7.89,84.52-11.81,3.93-28,7.77-55.34,11.69-83.3-6.06-.95-11.31-1.77-17.13-2.68-2.94,20.21-5.75,39.49-8.55,58.77-.92.54-1.84,1.09-2.76,1.63-19.9-21.16-39.8-42.32-59.05-62.79-5.48,4.89-9.28,8.28-13.93,12.43,20.52,20.95,40.78,41.63,61.21,62.49-19.33,2.88-38.88,5.79-58.8,8.75,1,5.89,1.8,10.64,2.79,16.51Z"/>
      <path class="cls-1" d="M0,215.17V0c3.76.05,7.51.14,11.27.14,172.87,0,345.75,0,518.62,0h10.76v215.85h-10.87c-173.16,0-346.33,0-519.49-.03-3.43,0-6.86-.51-10.29-.79ZM147.92,161.28c2.35.27,4.02.63,5.69.63,33.23.03,66.47.16,99.7-.12,5.96-.05,12.61-.51,17.67-3.18,5.12-2.7,10.93-7.76,12.35-12.92,2.06-7.45,2.37-16.61-.19-23.75-2.34-6.53-9.48-11.34-13.16-15.41,3.51-3.74,10.82-8.01,12.41-13.84,7.31-26.7-2.26-38.6-29.56-39.06-.87-.01-1.73,0-2.6,0-31.21,0-62.42-.01-93.63.02-2.78,0-5.57.3-8.69.48v107.17ZM487.28,161.93c-2.47-4-3.87-6.44-5.43-8.77-18.59-27.84-37.99-55.18-55.44-83.71-7.62-12.46-15.95-17.89-30.34-16.13-5.93.72-9.78,1.81-13.22,7.16-20.28,31.56-41,62.83-61.54,94.21-1.3,1.98-2.32,4.15-3.84,6.88,3.26.17,5.29.07,7.26.41,15.45,2.68,26.83-1.9,32.17-17.65,1.67-4.93,5.51-5.68,10.28-5.61,17.03.23,34.18,1.29,51.07-.27,15.45-1.43,25.84,2.83,32.27,17.19,1.24,2.77,5.24,5.75,8.2,6.01,8.84.79,17.8.28,28.55.28ZM54.39,54.02v107.26h28.73V54.02h-28.73Z"/>
      <path d="M315.88,358.27c20.97,3.01,40.29,5.78,60.2,8.64-.89,5.94-1.64,10.97-2.55,17.01-14.45-1.95-28.36-3.8-42.26-5.72-12-1.65-24.04-3.11-35.95-5.3-2.53-.46-6.18-3.48-6.53-5.75-4.01-25.89-7.49-51.86-11.22-78.59,5.78-.78,11.05-1.49,17.04-2.29,2.98,19.98,5.84,39.19,9.15,61.37,21.72-22.58,41.68-43.32,62.16-64.61,4.18,5.15,7.38,9.1,10.73,13.22-19.27,19.66-39.53,40.33-60.78,62.02Z"/>
      <path d="M163.72,487.99c20.91-20.98,41.25-41.38,63.04-63.25-21.01-3.03-40.23-5.8-60.71-8.75.73-5.44,1.43-10.66,2.25-16.82,18.33,2.5,35.94,4.89,53.55,7.32,6.29.87,12.58,2.66,18.85,2.56,9.78-.16,13.26,4.08,14.27,13.55,2.35,22.09,5.77,44.07,8.71,66.1.22,1.67.03,3.39.03,5.83-5.11.92-10.07,1.81-16.16,2.91-2.93-20.13-5.76-39.61-8.97-61.68-21.6,22.64-41.81,43.83-62.47,65.49-5.11-5.47-8.41-9.02-12.38-13.26Z"/>
      <path d="M303.71,438.2c-2.73,19.11-5.46,38.23-8.34,58.39-5.41-.77-10.39-1.47-16.73-2.37,1.49-12.04,2.83-23.65,4.38-35.23,1.92-14.31,3.83-28.63,6.22-42.87.41-2.44,2.92-6.16,4.89-6.47,25.41-3.88,50.89-7.26,76.36-10.71,1.05-.14,2.18.24,3.84.45.82,5.19,1.61,10.18,2.54,16-20.08,2.89-39.38,5.67-59.5,8.56,21.12,21.07,41.61,41.52,62.44,62.31-4.81,4.96-8.36,8.62-13.18,13.6-20.39-21.54-40.2-42.45-60-63.37-.98.57-1.95,1.14-2.93,1.7Z"/>
      <path d="M167.61,384.62c-.99-5.87-1.8-10.61-2.79-16.51,19.91-2.96,39.47-5.87,58.8-8.75-20.43-20.86-40.69-41.54-61.21-62.49,4.65-4.15,8.45-7.54,13.93-12.43,19.25,20.47,39.15,41.63,59.05,62.79.92-.54,1.84-1.09,2.76-1.63,2.8-19.28,5.61-38.55,8.55-58.77,5.82.91,11.07,1.73,17.13,2.68-3.92,27.96-7.76,55.3-11.69,83.3-28.02,3.91-55.65,7.78-84.52,11.81Z"/>
      <path d="M147.92,161.28V54.11c3.12-.18,5.9-.48,8.69-.48,31.21-.03,62.42-.02,93.63-.02.87,0,1.73,0,2.6,0,27.3.46,36.87,12.36,29.56,39.06-1.6,5.83-8.9,10.1-12.41,13.84,3.67,4.07,10.81,8.88,13.16,15.41,2.56,7.14,2.25,16.3.19,23.75-1.42,5.16-7.23,10.22-12.35,12.92-5.06,2.67-11.71,3.13-17.67,3.18-33.23.28-66.47.15-99.7.12-1.67,0-3.35-.36-5.69-.63ZM177.07,116.23v26.25c21.46,0,42.17,0,62.88,0,16.25,0,18.97-2.82,16.48-18.82-.43-2.75-4.3-7.05-6.65-7.1-24.1-.53-48.22-.32-72.71-.32ZM176.85,97.07c24.11,0,47.14.01,70.16,0,7.8,0,9.39-4.83,9.3-11.51-.09-6.7.17-13.2-9.2-13.25-15.27-.09-30.55-.17-45.82-.22-7.98-.03-15.96,0-24.45,0v25Z"/>
      <path d="M487.28,161.93c-10.75,0-19.71.51-28.55-.28-2.96-.27-6.96-3.25-8.2-6.01-6.43-14.36-16.82-18.62-32.27-17.19-16.89,1.56-34.04.5-51.07.27-4.78-.06-8.61.68-10.28,5.61-5.34,15.75-16.72,20.34-32.17,17.65-1.96-.34-4-.24-7.26-.41,1.51-2.73,2.54-4.9,3.84-6.88,20.54-31.39,41.26-62.66,61.54-94.21,3.43-5.34,7.28-6.43,13.22-7.16,14.38-1.76,22.71,3.67,30.34,16.13,17.45,28.53,36.85,55.87,55.44,83.71,1.56,2.33,2.96,4.77,5.43,8.77ZM426.52,118.24c-8.86-14.75-17.13-28.53-26-43.29-9.3,15.07-17.67,28.64-26.71,43.29h52.71Z"/>
      <path d="M54.39,54.02h28.73v107.26h-28.73V54.02Z"/>
      <path class="cls-1" d="M177.07,116.23c24.49,0,48.61-.2,72.71.32,2.36.05,6.22,4.35,6.65,7.1,2.49,16-.24,18.81-16.48,18.82-20.71.01-41.42,0-62.88,0v-26.25Z"/>
      <path class="cls-1" d="M176.85,97.07v-25c8.49,0,16.47-.02,24.45,0,15.27.06,30.55.14,45.82.22,9.37.05,9.11,6.55,9.2,13.25.09,6.68-1.5,11.5-9.3,11.51-23.02.02-46.05,0-70.16,0Z"/>
      <path class="cls-1" d="M426.52,118.24h-52.71c9.04-14.65,17.41-28.22,26.71-43.29,8.87,14.76,17.14,28.54,26,43.29Z"/>
    </g>
  </g>
</svg>