<?xml version="1.0" encoding="UTF-8"?>
<svg id="Layer_2" xmlns="http://www.w3.org/2000/svg" viewBox="0 0 629.27 648.96">
  <defs>
    <style>
      .cls-1 {
        fill: none;
      }

      .cls-2 {
        fill: #929292;
      }

      .cls-3 {
        fill: #999;
      }
    </style>
  </defs>
  <g id="Layer_1-2" data-name="Layer_1">
    <g>
      <g>
        <path class="cls-2" d="M629.27,648.08c-.26-.01-.52-.02-.78-.03-.28-.33-.51-.7-.7-1.1-.54-3.23-.51-6.47-.03-9.71.17-.41.4-.77.7-1.1.27-.03.54-.06.81-.09v12.03Z"/>
        <path class="cls-2" d="M67.96,647.42c-.77-.55-1.31-1.22-1.16-2.24-.75-.88-1.44-1.83-2.59-2.25-7.16-8.84-14.29-17.7-21.54-26.47-.57-.69-.79-3.35-2.83-1.3-.69,1.89-.27,3.82-.24,5.75.1,8.59.53,17.19-.28,25.78-3.5,2.27-7.37.43-11.02.98-1.26.19-1.77-.6-1.71-1.8,0-18.34,0-36.68-.01-55.03,0-.98.28-2-.24-2.94,1.01-1.43,2.4-.48,3.63-.59.3.22.65.55.97.48,4.03-.76,6.65,1.88,9.52,3.9,4.3,5.37,8.63,10.71,12.89,16.11,2.06,2.61,3.98,5.32,5.97,7.99,1.77,2.19,2.95,4.86,5.39,6.51,1.67-.23.94-1.5.94-2.35.03-9.76.12-19.53-.02-29.29-.04-2.75.71-3.87,3.58-3.52,3.43.42,8.06-1.45,10.02.83,1.69,1.97.53,6.45.52,9.81-.03,15.52-.1,31.04-.15,46.55.04,2.9-1.51,3.71-4.19,3.39-2.46-.29-4.97.26-7.43-.31Z"/>
        <path class="cls-2" d="M274.04,647.32c-.04-19.27-.07-38.55-.16-57.82,0-1.75.45-2.6,2.29-2.33.37.05.76.07,1.13,0,6.15-1.16,9.8,1.69,12.72,6.93,2.07,3.72,5.93,6.29,8.06,10.14.01,2,1.06,3.08,2.63,4.39,2.41,2.02,3.79,5.17,6.49,7.06.73.92,1.46,1.85,2.2,2.77.27,1.58,1.88,2.27,2.43,3.68.32.83,1.06,1.13,1.82.8.85-.37.48-1.28.56-1.99.02-9.27-.02-18.53,0-27.8q0-5.15,5-5.23c1.24-.02,2.52.18,3.64-.6,1,0,1.99,0,2.99,0,2.06,2.96,1.02,6.34,1.06,9.48.19,14.89.09,29.79.07,44.68,0,1.06.46,2.31-.77,3.07-.3.18-.71.1-1.06.23,2.96.57,1.38,1.77.4,2.89-3.28-.06-6.58.36-9.85-.25-8.95-10.98-17.91-21.96-27-33.12-.44,1.08-.82,2-1.2,2.92.2,6.1-.15,12.21-.03,18.31.05,2.5-.1,5,.05,7.49.28,4.69.32,4.76-4.53,4.66-2.97-.06-5.97.48-8.92-.34Z"/>
        <path class="cls-2" d="M503.56,587.31c2.74,0,5.48,0,8.22,0,.29.38-.63.94-.13.95,2.88.04,2.57,1.91,2.55,3.87-.17,17.43-.33,34.85.13,52.28.03,1.16.19,2.24-.86,3.04-3.28.62-6.61-.08-9.9.4-6.97-7.8-13.38-16.04-19.69-24.37-2.32-3.22-4.16-6.84-7.52-9.22-.38.02-.76.03-1.14.05-1.53,5.12-.01,10.31-.29,15.47-.23,4.24.05,8.51-.06,12.76-.05,2.08-.02,4.4-2.75,5.14-1.76.02-3.51.01-5.26.01-4.78,0-5.08-.23-5.09-5.06-.03-17.38-.01-34.76-.02-52.14,0-.86.22-1.75-.21-2.58,5.68-2.12,10.47-1.07,13.88,3.28,8.14,10.39,16.07,20.94,25.25,31.57.58-11.61-.38-22.62.46-33.58,1.05,1.71.28,3.55.48,5.52.26-2.69-.78-5.57,1.94-7.4Z"/>
        <path class="cls-2" d="M133.18,647.3c-.79-.96-1.58-1.93-2.37-2.89-.49-1.24-.72-2.68-2.35-3.05-6.77-8.27-13.53-16.56-20.35-24.8-.71-.85-.95-2.49-2.7-2.03-1.53.41-2.71.99-1.28,2.77.64.8,1.09,1.68,1.06,2.72-.21,8.31.44,16.63-.25,24.94.38,1.9-.35,2.79-2.34,2.74-2.6-.06-5.2-.16-7.79.03-2.46.18-3.06-.94-2.73-3.06.56-1.81.74-3.65.74-5.55-.02-12.64.03-25.29-.03-37.93-.02-3.72-1.06-7.43-.04-11.14.36-1.03-.4-1.55-.99-2.15,5.75-2.09,10.55-.92,13.91,3.42,3.9,5.02,7.79,10.06,11.69,15.08,1.49,3.03,3.53,5.62,6.16,7.75,1.43,1.29,2.65,2.74,3.59,4.44.59,1.17,1.21,2.31,2.36,3.05l-.04-.03c.54,1.25.96,2.89,2.49.71,0-9.62-.2-19.22-.11-28.83.05-5.28,1.05-6.1,6.36-5.3,1.04.16,1.96.12,2.93-.17,2.66-.43,4.04.48,3.65,3.37-.16,1.21.22,2.48-.42,3.63-1.46,1.99-1.85,4.24-1.9,6.69-.21,10.34.27,20.67-.33,31.02-.21,3.6-1.11,8.06,2.25,11.27.61.96.32,2.01.33,3.03-.68,1.02-1.73.51-2.63.65-1.5-.83-3.01-.32-4.52,0-1.46-.2-2.99.42-4.38-.4Z"/>
        <path class="cls-2" d="M236.19,610.49c1.01,1.69,2.68.99,4.09,1.05,6.6.29,13.22-.49,19.8.44-5.81.85-11.66.15-17.48.36-1.42.05-2.84.01-4.25.14-.48.26.19.92-.05.48-.1-.18-.04-.32.17-.33,7.28-.37,14.55-.57,21.82.11,0,2.51,0,5.02,0,7.52-.42,1.76-1.58,1.99-3.28,2.11-6.66.46-13.34-.37-19.98.44-.28.4-.56.79-.84,1.19-1.05,1.26-.12,2.51,0,3.76.05,2.69.09,5.37.14,8.06.97,1.22,2.31.57,3.46.58,6.38.07,12.75.06,19.13.02,2.02-.01,4.03.14,6.04.2.78,3.21.1,6.48.33,9.71.11,1.53-.72,1.87-2.08,1.86-12.92-.03-25.83-.02-38.75,0-1.26,0-2.21-.13-2.2-1.76.19-19.27-.38-38.55.3-57.82,1.2-.92,2.61-.69,3.97-.69,8.11-.02,16.22.02,24.33-.02,3.02-.02,6.03,1.67,9.05.04,2.89-.24,4.09,1.32,4.17,3.99.08,2.47.09,4.95-.48,7.38-7.93.74-15.87.08-23.8.34-1.25.04-2.82-.71-3.61,1.05-2.34,1.5-.39,3,0,4.5,0,.51,0,1.02,0,1.53-.34,1.25-.78,2.51,0,3.76Z"/>
        <path class="cls-2" d="M628.39,636.81c0,3.51.01,7.01.02,10.52-2.19.75-4.45.35-6.67.34-11.5-.03-23,.2-34.49-.11-1.19-2.24-.49-4.63-.51-6.96-.17-15.14.31-30.27-.2-45.41-.09-2.6-1.14-6.37,3.19-7.4.68-.27,1.37-.28,2.06-.09,9.98.47,19.96.08,29.93.21,1.05.35,2.76.47,3.19.35,3.25-.95,3.04.99,2.84,2.94-.18,1.7-.46,3.39-.22,5.11-.2,1.09-.43,2.17-1.27,2.99l-.19.12-.17-.15c-4.33-.56-8.68-.43-13.03-.49-3.35-.05-6.68.16-10.01.5l-.02.05c-.22-.52-.25-1.19-1.03-1.24.35.34.87.63.41,1.24-.85.39-2.23-.14-2.4,1.4-.5,3.25-.63,6.49,0,9.74.74,1.84,2.39,1.05,3.59,1.07,5.99.1,11.99.11,17.98,0,2.08-.04,2.75.56,2.8,2.72.2,8.69.28,8.69-8.39,8.69-4.24,0-8.49-.04-12.73.04-1.12.02-2.59-.64-3.25,1.02-.22,3.77-1.2,7.53.02,11.3.3.29.59.58.89.87,7.87.61,15.76.09,23.64.29,1.35.03,2.76-.36,4.05.35Z"/>
        <path class="cls-2" d="M353.83,611.19c.22-.04.43,0,.63.11,1.07,1.49-.67,1.79-1.13,2.62,2.03-.79,3.86-1.6,6.32-1.1,4,.81,8.22,1.18,12.16-.51,2.13-.91,4.91.94,6.54-1.68.3-1.85.96-3.75.57-5.55-1.34-6.2,2.69-10.82,4.46-16.1.3-.89,1.27-1.15,1.94-1.68.5,0,1,0,1.51,0,1.04,1.03,2.59.28,3.7,1.06.25.24.4.54.46.89-.21,2.02-2.97,2.12-3.2,4.31,1.68.12,1.44-2.86,3.35-2.05.69.29.55,1.01.57,1.62-.01,17.03-.07,34.04.06,51.05.02,2.81-.73,3.82-3.57,3.56-2.48-.23-5.01-.06-7.5-.04-2.28.06-3.16-1.5-2.29-3.13,2.13-3.96-.38-8.52,1.95-12.35.13-.22.23-.65.15-.68-4.6-1.56-1.4-5.13-2.01-7.7-.05-.23-.25-.43-.41-.62-.69-.7-1.58-.73-2.45-.69-7.07.36-14.18-.81-21.22.61-.46.35-.92.7-1.37,1.05-.32,5.46,0,10.92-.12,16.39-.05,2.35.08,4.72-.83,6.97-4.04.13-8.09.51-12.12-.22-.49-9.75-.12-19.5-.2-29.25-.07-8.51-.05-17.02,0-25.53.02-4.02.6-4.55,4.55-4.61,1.88-.03,3.76,0,5.64,0,1.53,0,2.71.45,3.13,2.07.44,5.86.05,11.74.22,17.6.03,1.2-.49,2.5.49,3.58Z"/>
        <path class="cls-2" d="M548.2,600.06c-4.91,2.32-8.07,6.2-10.03,11.17-2.18,3.54-.97,7.38-.96,11.11.25.93.74,2.11.48,2.79-.81,2.15.92,2.07,1.94,2.65.22.15.33.36.34.63.11,1.47,1.32,2.15,2.22,3.04,6.39,6.08,13.46,6.15,20.96,2.35,2.35-.58,2.9-4.2,5.68-3.71,2.71.47,4.57,2.84,7.06,3.95,1.16.51,2.14,1.37,1.58,2.93l.05-.05c-1.07.75-1.72,1.87-2.48,2.89-7.32,10.15-29.78,12.76-40.27,2.04-4.4-4.49-7.98-9.01-9.96-14.87.25-2.42-1.2-5.1,1.69-7.11.9-.63.25-2.69-.43-3.87-1.67-2.89-.93-5.81-.32-8.71.5-2.41,1.76-3.33,3.89-1.21.84-1.26.57-2.48.25-3.63-.88-3.22,1.3-5.52,3.42-6.27,2.05-.72,1.48-1.84,1.87-2.92,12.63-10.1,32.87-7.85,41.5,4.54,1.23,1.76,1.63,2.92-.64,3.98-.89.42-1.64,1.14-2.47,1.7-1.76,1.19-3.39,2.93-5.33,3.4-2.55.62-2.65-2.66-4.24-3.89-3.24-2.52-6.97-3.2-10.79-3.85-1.48-1.39-3.46.29-5.05-.75-.11-.07-.33,1.08.02,1.67Z"/>
        <path class="cls-2" d="M3.62,587.31c3,0,5.99,0,8.99,0,.87,1.13,1.17,2.39,1.17,3.84-.04,16.63-.03,33.26-.02,49.89,0,1.38-.04,2.75-.21,4.11-.12.92-.4,1.87-1.32,2.1-3.31.82-6.69.58-10.03.16-.79-.1-.92-1.03-1.02-1.82-.14-1.12-.2-2.24-.2-3.37,0-16.77.04-33.54-.05-50.3-.01-2.25.35-3.91,2.69-4.62Z"/>
        <path class="cls-2" d="M590.12,587.92c-3.26,1.38-3.04,4.77-2.77,6.99,1.01,8.13.35,16.23.46,24.34.12,9.36.47,18.74-.69,28.07-.29.26-.58.26-.86,0-.64-4.34-.26-8.71-.28-13.06-.06-13.98-.04-27.97-.02-41.96,0-1.48.2-2.95.3-4.42,1.29-.48,2.58-.54,3.86.05Z"/>
        <path class="cls-2" d="M94.7,588.67c-1.61,3.12-2.71,6.25-.95,9.75.41.81.19,1.96.19,2.95,0,12.6,0,25.2,0,37.8,0,1.87.17,3.78-1.51,5.15-.23.36-.46.36-.69,0,0-18.06,0-36.11,0-54.17.48-1.48,1.2-2.5,2.94-1.5Z"/>
        <path class="cls-2" d="M3.62,587.31c-3.66,3.55-2.19,8.1-2.23,12.26-.14,14.01-.06,28.03-.04,42.05,0,1.93-.52,4.78,1.39,5.33,2.88.84,6.31,1.18,9.15-.27,1.98-1.01,1.46-3.53,1.47-5.46.04-14.39.17-28.78-.08-43.17-.06-3.56.73-7.24-.68-10.74,1.69.29,1.63,1.55,1.63,2.84-.01,18.52-.04,37.05.04,55.57,0,2.04-.7,2.63-2.6,2.48-3.59-.28-8.2,1.45-10.52-.66-2.19-1.99-.62-6.62-.63-10.08-.07-15.77.02-31.54-.08-47.31-.02-2.5.66-3.51,3.17-2.85Z"/>
        <path class="cls-2" d="M535.19,593.26c1.35.74-.21,2.78,1.69,3.6.48.2-1.07.81-1.78.59-.8-.25-1.71-1.83-2.28-.11-.54,1.64-3.56,2.24-2.03,4.65.78,1.22.66,2.37.09,3.54-.4.82,1.16,2.09-.5,2.51-1.13.28-1.33-.91-1.79-1.59-1.31-1.93-2.06-.34-2.13.58-.22,2.74-1.39,5.58.48,8.21,1.16,1.63.32,3.7,1.12,5.43.07.16-.11.64-.18.64-4.46.04-1.4,4.13-3.06,5.65-4.18-12.52-.05-25.96,10.37-33.71Z"/>
        <path class="cls-2" d="M513.32,647.33c1.54-2.3-.12-4.59-.09-6.9.18-13.26.06-26.52.11-39.78,0-3.03-.93-5.94.23-9.15,1.13-3.14-2.16-2.64-4.34-3.01,1.08-.5,1.82-.83,2.56-1.17,1.59-.16,3.2-.74,3.18,2.03-.13,19.33-.15,38.65-.2,57.98-.48.45-.96.43-1.44,0Z"/>
        <path class="cls-2" d="M385.33,587.31c-1.8,6.1-6.91,11.19-5.35,18.35.41,1.87-.39,3.86-1.43,5.58-.33-.14-.55-.39-.64-.74-.03-6.61.06-13.22-.16-19.82-.09-2.74.55-3.99,3.47-3.52,1.34.22,2.74.11,4.11.15Z"/>
        <path class="cls-2" d="M140.63,588.67c-.21,1.29-.72,1.61-2.05,1.03-4.6-2.03-5.86-1.26-5.85,3.49.03,9.6.09,19.21.16,28.81,0,.54-.08.97-.54,1.27-.79-.35-1.28-.85-.87-1.79-.66-10.79-.11-21.59-.3-32.38-.04-2.18,1.24-2.04,2.71-1.79,1.61.53,3.27.09,4.89.27.71.21,1.44.39,1.85,1.09Z"/>
        <path class="cls-2" d="M410.77,614.07c.11,1.1.21,2.19.33,3.32,5.09-1.49,3.52,4.65,6.91,5.49,2.12-2.26,2.17-5.65,3.4-8.49.38-.87.56-1.6,1.63-1.64-3.07,8.81-3.07,10.81-3.53,12.63-.36-.09-.81-.35-1.08-.23-3.57,1.61-5.16.67-4.56-3.38.13-.84-.48-1.38-1.37-1.41-.89-.04-1.14.58-1.58,1.25-1.2,1.82-.9,5.25-4.59,4.61,1.09-4.19,2.61-8.23,4.45-12.15Z"/>
        <path class="cls-2" d="M377.91,610.49c.21.25.43.49.64.74-1.91,3.07-5.47,1.6-8.14,2.56-3.55,1.28-7.99.84-12.11-.09-1.99-.45-4.9-.36-4.96,3.45-3-2.97.48-4.07,1.11-5.86,6.67-.06,13.34-.08,20-.2,1.15-.02,2.48.59,3.45-.61Z"/>
        <path class="cls-2" d="M260.35,588.67c-2.18-.46-2.43,1.73-3.85,2.89-1.45-2.7-3.86-2.97-6.6-2.93-9.11.11-18.22.01-27.34,0-.21-2,1.34-1.42,2.28-1.42,12.58,0,25.15.07,37.73.12,0,1.66-1.74.46-2.22,1.34Z"/>
        <path class="cls-2" d="M352.76,590.15c-1.69-1.4-9.88-2.24-11.35-1.08-1.46,1.16-1.26,2.88-1.26,4.51,0,17.91,0,35.81,0,53.72-.19.31-.4.3-.6.01-.01-19.8-.03-39.6-.04-59.4,4.19-1,8.48.18,12.68-.63.41-.11.73-.02.86.43.25.85.63,1.72-.29,2.43Z"/>
        <path class="cls-2" d="M104.49,644.32c0-7.47.02-14.93-.01-22.4,0-1.96.27-4.15-2.46-4.72-.57-.12-1.04-.54-.74-.99.82-1.22,1.75-2.49,3.17-2.99.75-.26.75.77.97,1.31.35,9.94.49,19.88-.08,29.82-.3.39-.58.38-.85-.03Z"/>
        <path class="cls-2" d="M379.3,647.32c2.62,0,5.26-.19,7.86.06,3.21.31,4.31-.65,4.27-4.08-.19-17.2-.09-34.41-.1-51.62-1.07-.81.15-2.16-.73-3.02h0c-.16-1.3.5-1.2,1.34-.77.05,19.29.08,38.58.17,57.88,0,1.74-.43,2.5-2.29,2.42-3.75-.15-7.51-.14-11.27-.2-.16-.68.07-.93.75-.67Z"/>
        <path class="cls-2" d="M461.54,587.92c.52.11.87.34.86.97-.1,17.32-.2,34.64-.27,51.97-.03,6.42.07,6.48,6.41,6.48,1.37,0,2.75,0,4.12,0,.18.15.24.3.18.45-.06.15-.12.22-.18.22q-11.3.8-11.3-10.12c.04-16.66.12-33.32.18-49.97Z"/>
        <path class="cls-2" d="M379.3,647.32c-.25.22-.5.45-.75.67-1.43-.86-.68-2.24-.7-3.36-.1-7.11-.1-14.23-.13-21.34.26-.34.54-.35.83-.03.61.29,2.8-.54,1.18,1.36-1.53,1.8-1.27,3.62-.94,5.55,1.22.7,2.19-1.94,3.26-.19.73,1.2-.79,2-.94,2.93-.76,4.78-1.24,9.6-1.82,14.4Z"/>
        <path class="cls-2" d="M472.67,648.01c0-.22,0-.45,0-.67.97-1.33,1.58-2.69,1.55-4.46-.11-6.2.25-12.43-.16-18.6-.23-3.49-1.03-6.84,1.17-9.96.03,10.24.06,20.48.09,30.72,0,1.81-.29,3.29-2.65,2.98Z"/>
        <path class="cls-2" d="M325.84,647.32c.16-1.35,1.04-3.29-2.44-1.98,2.94-.97,3.29-2.62,3.27-4.9-.12-14,0-28.01-.1-42.01-.02-3.71-.48-7.41-.74-11.11,1.9-.36,1.62,1.02,1.62,2.08-.04,19.31-.1,38.63-.15,57.94-.49.44-.97.42-1.45-.01Z"/>
        <path class="cls-2" d="M140.63,588.67c-.62-.02-1.18-.15-1.51-.75.61-.69,1.58-.1,2.24-.62,2.78-.63,3.92.05,3.88,3.31-.22,18.9-.19,37.81-.24,56.72-.2.29-.41.29-.6,0,0-1,0-2,0-3-.91-.99-1.15-2.22-1.16-3.49-.06-14.78-.13-29.56.02-44.34,0-.62,0-1.26.38-1.8,1.74-4.78,1.2-5.86-3.01-6.02Z"/>
        <path class="cls-2" d="M274.04,647.32c3.62,0,7.25-.04,10.87.02,1.93.03,2.57-.58,2.35-2.67-.96-9.15-1.01-18.32.2-27.46.91.4.7,1.24.7,1.94.02,8.88.02,17.75.01,26.63,0,.83.27,2.21-.78,2.2-4.46-.06-9,1.17-13.36-.66Z"/>
        <path class="cls-2" d="M590.12,587.92c-1.29-.02-2.57-.03-3.86-.05.64-1.19,1.78-.67,2.68-.67,12.01-.03,24.03.09,36.04-.08,2.78-.04,3.51.9,3.24,3.39-.31,2.82.54,5.71-.45,8.51-.93-.76-.69-1.84-.76-2.84.31-1.13-1.41-1.47-.88-2.95,1.28-3.62,1.12-3.68-2.88-4.56-4.44-.84-8.92-.2-13.37-.38-6.08-.25-12.18.44-18.24-.37h-1.51Z"/>
        <path class="cls-2" d="M602.83,599.28c7.68-2.6,15.36-2.42,23.04,0-7.68.6-15.36.58-23.04,0Z"/>
        <path class="cls-2" d="M38.99,646.58c0-10.3,0-20.61,0-30.91,0-.21.09-.51.24-.61.13-.08.4.06.62.1.49,10.49.5,20.97.02,31.46-.31.39-.6.38-.88-.04Z"/>
        <path class="cls-2" d="M26.32,587.9c.52.11.9.32.9.95-.1,18.99-.19,37.98-.28,56.97-.21.33-.42.35-.63,0,0-19.31.01-38.61.02-57.92Z"/>
        <path class="cls-2" d="M418.42,593.09c-1.17,3.24,1.25,5.76,1.74,8.67.12.69.71,1.5-.46,1.76-.77.18-1.09-.42-1.22-1.08-.14-.74-.21-1.6-1.21-1.56-1.08.04-1.4,1.02-1.62,1.82-.85,3.07-1.7,6.14-2.32,9.26-.32,1.62-.76,2.6-2.61,2.13,2.27-7.11,4.76-14.14,7.69-21Z"/>
        <path class="cls-2" d="M322.84,587.32c-.91,2.41-3.01,1.33-4.5,1.27-2.87-.13-3.91.71-3.85,3.76.19,10.05.07,20.11.07,30.17-.32.27-.62.26-.89-.06.02-10.63.15-21.26-.02-31.88-.05-2.9.84-3.76,3.58-3.42,1.85.23,3.74.12,5.62.17Z"/>
        <path class="cls-2" d="M378.55,623.26c-.28,0-.55.02-.83.03-7.76-.06-15.52-.11-23.28-.17.12-2.8,3.03-1.48,3.54-1.45,5.95.33,11.89-.08,17.83.07,1.22.03,2.19.34,2.73,1.51Z"/>
        <path class="cls-2" d="M237.02,622.82c.67-1.62,2.11-1.02,3.25-1.03,5.36-.06,10.72-.07,16.08,0,1.58.02,2.96-.15,3.93-1.52.5,1.91-.08,2.73-2.21,2.69-7.02-.13-14.04-.11-21.05-.14Z"/>
        <path class="cls-2" d="M204.77,639.97c-1.35-1.91-.3-2.39,1.14-3.96,2.3-2.53,5.1-5.3,5.35-9.34.11-1.8,1.03-3.53,2.37-4.9-.38,7.31-3.65,13.23-8.85,18.21Z"/>
        <path class="cls-2" d="M352.19,647.32c0-7.55,0-15.09.02-22.64,0-.21.09-.51.25-.6.13-.08.41.06.62.1.47,7.71.49,15.43,0,23.14-.29.26-.58.26-.87,0Z"/>
        <path class="cls-2" d="M586.25,647.32c.29,0,.58,0,.86,0,13.76,0,27.53,0,41.29,0,.09.23.11.47.08.72-13.49.04-26.97.09-40.46.12-.7,0-1.56.21-1.78-.85Z"/>
        <path class="cls-2" d="M577.49,636.96c-1.57-3.63-5.93-3.46-8.34-6.05-.64-.69-2.16-.02-2.65,1.24-.62,1.59-1.9,1.75-3.33,1.65,1.74-1.64,3.09-5.43,4.68-5.04,3.48.87,6.63,3.28,9.76,5.3.94.6,1,1.97-.11,2.9Z"/>
        <path class="cls-2" d="M264.95,636.63c-.07.73-.15,1.47-.22,2.2-.53-2.08-2.08-2.06-3.78-2.04-6.98.05-13.95.05-20.93-.01-1.27-.01-2.8.63-3.71-.95,8.37.07,16.74.12,25.11.25,1.17.02,2.5-.58,3.52.56Z"/>
        <path class="cls-2" d="M307.19,615.69c-2.14-.5-3.63-1.86-4.68-3.7-1.3-2.28-3.01-3.97-5.89-4.32.74-1.19,1.69-2.08,1.45-3.43,3.34,3.58,6.35,7.42,9.12,11.45Z"/>
        <path class="cls-2" d="M406.35,626.19c.24.7.46,1.42.72,2.11.22.58.56,1.13.7,1.73.11.46,0,.98-.02,1.47-4.16-.67-1.25,5.77-5.28,5.24.95-3.64,2.18-7.18,3.87-10.55Z"/>
        <path class="cls-2" d="M260.35,588.67c.74-.45,1.48-.89,2.22-1.34.61-.14,1.61-.23,1.63.3.1,3.9,1.39,7.89-.59,11.68-.79-.25-1.95-.29-1.01-1.6,1.45-2.02.69-4.29.64-6.44-.04-1.59-.97-2.8-2.89-2.6Z"/>
        <path class="cls-2" d="M628.39,636.81c-8.05,0-16.1.01-24.16-.03-1.19,0-2.5.4-3.54-.62,9.25,0,18.51-.02,27.76-.03.06.23.03.46-.07.67Z"/>
        <path class="cls-2" d="M40.44,591.7c-3.5-1.46-6.99-2.92-10.49-4.39,4.37-.61,8.43-.51,10.49,4.39Z"/>
        <path class="cls-2" d="M260.28,612.74h-22.42c0-.25,0-.51,0-.76,7.4,0,14.81,0,22.21,0,.07.25.14.51.21.76Z"/>
        <path class="cls-2" d="M352.76,590.15c.1-.81.19-1.62.29-2.43.85,6.33.14,12.69.38,19.03.06,1.49-.24,3,.4,4.44-1.52-.96-.88-2.48-.91-3.76-.11-5.76-.12-11.51-.16-17.27Z"/>
        <path class="cls-2" d="M104.49,644.32c.28,0,.57.02.85.03.98,2.86.16,4.16-3.05,3.87-2.33-.21-4.72-.23-7.05,0-3.16.32-4.35-.79-3.5-3.89.23,0,.46,0,.69,0-.25,2.16.52,3.22,2.88,3.04,2.09-.16,4.21-.15,6.29,0,2.36.18,3.13-.88,2.88-3.04Z"/>
        <path class="cls-2" d="M599.81,635.3c-.4-.25-1.15-.49-1.15-.74-.03-3.59.03-7.19.08-10.78.35.07.7.15,1.05.22,0,3.77.01,7.53.02,11.3Z"/>
        <path class="cls-2" d="M539.63,627.78c-.6.11-1.23.14-1.78.36-.51.2-.85,1.07-1.53.53-.54-.43-.54-1.37-.15-1.69,1.68-1.39.31-3,.5-4.47.28-.35.35-.87.88-.99.7,2.09,1.39,4.17,2.09,6.26Z"/>
        <path class="cls-2" d="M476.37,614.26c3.98,1.88,6.04,5.31,7.52,9.22-2.85-2.8-5.12-6.06-7.52-9.22Z"/>
        <path class="cls-2" d="M548.2,600.06c-1.88.34.1-2.44-1.9-2.15,2.4.51,5.07-1.36,6.93,1.23-1.68.31-3.35.61-5.03.92Z"/>
        <path class="cls-2" d="M123.55,614.16c-3.58-1.37-5.31-4.21-6.16-7.75,2.3,2.39,4.43,4.91,6.16,7.75Z"/>
        <path class="cls-2" d="M399.05,645.85c.81,1.29,2.01,1.54,3.46,1.5,3.31-.09,6.62-.03,9.92-.03-4.33,1.85-8.86.63-13.28.71-1.73.03-.11-1.41-.11-2.18Z"/>
        <path class="cls-2" d="M26.31,645.82c.21,0,.42,0,.63,0,.23.42.44,1.18.7,1.2,3.79.23,7.62,1,11.35-.44.29.01.58.03.88.04.29,1.19-.33,1.55-1.39,1.55-3.48,0-6.95-.04-10.43.02-1.81.03-2.08-.9-1.75-2.37Z"/>
        <path class="cls-2" d="M441.03,647.79c2.37-1.14,4.87-.17,7.3-.45,2.05-.23,4.21.46,6.14-.75.61,1.06.34,1.63-.92,1.57-4.17-.18-8.37.45-12.52-.37Z"/>
        <path class="cls-2" d="M64.69,622.3c-.14.2-.28.4-.42.61-2.19-2-4.33-4.03-4.97-7.11,2.3,1.76,3.87,4.11,5.39,6.51Z"/>
        <path class="cls-2" d="M537.55,621.52c-.29.33-.59.66-.88.99.45-3.77-1.79-7.89,1.5-11.28-.96,3.38-.76,6.84-.62,10.29Z"/>
        <path class="cls-2" d="M67.96,647.42c2.25-.03,4.51-.26,6.73-.03,2.57.26,4.2-.52,4.89-3.05.79,3-.28,4.36-3.44,3.85-2.71-.44-5.59.89-8.18-.76Z"/>
        <path class="cls-2" d="M175.19,588.38c-.93,4.01-4.22,2.98-6.91,3.23,2-1.72,4.37-2.65,6.91-3.23Z"/>
        <path class="cls-2" d="M503.56,587.31c.25.27.51.54.76.81-3.88,1.34-1.51,4.96-2.86,7.88-.13-2.66-.23-4.74-.33-6.82-.59-2.42.96-2.09,2.42-1.88Z"/>
        <path class="cls-2" d="M352.19,647.32c.29,0,.58,0,.87,0-4.5,1.42-9,1.38-13.5,0,.2,0,.4,0,.6-.01,4.01,0,8.02,0,12.03,0Z"/>
        <path class="cls-2" d="M236.19,605.21c-.38-1.53-3.31-1.02-2.71-3.23.34-1.27,1.6-1.28,2.71-1.27,0,1.5,0,3,0,4.5Z"/>
        <path class="cls-2" d="M352.19,587.29c-4.17,1.34-8.46.26-12.68.63,4.15-1.7,8.45-.45,12.68-.63Z"/>
        <path class="cls-2" d="M144.4,647.32c.2,0,.4,0,.6,0-3.94,1.45-7.88,1.42-11.82-.03,1.73.01,3.46.02,5.19.03,1-.53,2.01-.73,3.01-.01,1,0,2.01,0,3.01,0Z"/>
        <path class="cls-2" d="M599.8,610.47c-1.47-3.25-1.19-6.49,0-9.74,0,3.25,0,6.49,0,9.74Z"/>
        <path class="cls-2" d="M313.66,622.45c.3.02.6.04.89.06-.72,2.1-2.83,1.23-3,.52-.43-1.73-2.62-2.55-2.16-4.57,1.71,1.02,2.13,3.43,4.27,4Z"/>
        <path class="cls-2" d="M513.32,647.33c.48,0,.96,0,1.44,0-3.66,1.73-7.45.73-11.2.53,3.2-1.11,6.51-.24,9.75-.52Z"/>
        <path class="cls-2" d="M325.84,647.32c.48,0,.96,0,1.45.01-3.86,1.49-7.74,1.22-11.62.07,3.39-.03,6.78-.06,10.17-.09Z"/>
        <path class="cls-2" d="M131.48,621.48c.29.6.58,1.19.87,1.79-.16,1.31-.98,1.75-2.1,1.29-1.4-.58-.77-1.89-.79-2.95.7.43,1.44,1.31,2.02-.13Z"/>
        <path class="cls-2" d="M391.94,587.89c-.57.05-1.08.2-1.34.77-1.3-.32-3.16.89-3.77-1.36,1.71.09,3.55-.86,5.11.59Z"/>
        <path class="cls-2" d="M160.1,598.91c1.05,2.86-1.24,3.65-2.98,4.78.47-1.92,1.53-3.47,2.98-4.78Z"/>
        <path class="cls-2" d="M141.36,587.3c-.59.76-1.44.59-2.24.62-1.74-.25-3.61.57-5.24-.61,2.49,0,4.98,0,7.47,0Z"/>
        <path class="cls-2" d="M236.19,627.77c-1.1-1.19-.39-3.37-2.51-3.97,1.16-.92,1.77.02,2.5.21,0,1.25,0,2.51,0,3.76Z"/>
        <path class="cls-2" d="M128.47,641.36c2.54-.33,3.06.88,2.35,3.05-.78-1.02-1.56-2.03-2.35-3.05Z"/>
        <path class="cls-2" d="M627.01,596.18c1.04.74.59,1.87.76,2.84-.42.55-.96.49-1.53.29.15-1.07-.34-2.3.77-3.13Z"/>
        <path class="cls-2" d="M236.19,610.49c-.49-.19-1.56,1.56-1.43-.28.08-1.19.93-2.32,1.44-3.48,0,1.25,0,2.51,0,3.76Z"/>
        <path class="cls-2" d="M129.5,621.64c-2.07-.03-2.17-1.57-2.36-3.05,1.08.79,1.94,1.75,2.36,3.05Z"/>
        <path class="cls-2" d="M602.19,599.33c-.24-.84-1.52-.97-1.19-2.28.34,1.02,3.03-.29,1.81,2.28,0,0-.31.14-.31.14l-.31-.14Z"/>
        <path class="cls-2" d="M542.2,631.45c-1.23-.66-3.01-.92-2.22-3.04.74,1.01,1.48,2.03,2.22,3.04Z"/>
        <path class="cls-2" d="M64.21,642.93c1.65-.16,2.56.54,2.59,2.25-1.41-.12-1.96-1.23-2.59-2.25Z"/>
        <path class="cls-2" d="M575.06,639.81c.15-1.55.98-2.5,2.48-2.89-.38,1.35-1.08,2.42-2.48,2.89Z"/>
        <path class="cls-2" d="M202.42,642.1c-.49-2.12,1.03-2.04,2.37-2.17-.56.98-1.36,1.69-2.37,2.17Z"/>
        <path class="cls-2" d="M94.7,588.67c-1.38-.29-2.15.63-2.94,1.5.01-.75.02-1.5.03-2.26,1.01.12,2.16-.33,2.91.76Z"/>
        <path class="cls-2" d="M294.84,612.22c1.34-1.1,1.66-2.77,3.45-2.23.68.2.94.81.63,1.48-.76,1.67-2.07,1.4-4.08.75Z"/>
        <g>
          <path class="cls-1" d="M200.32,593.42c-.09.05-.18.09-.27.13.54.29,1.07.58,1.59.88-.2-.47-1.14-1.12-1.33-1.01Z"/>
          <path class="cls-2" d="M205.34,596.33c-1.56.09-3.13.33-3.65-1.82,0-.02-.02-.05-.03-.08-.53-.3-1.05-.59-1.59-.88-2.82,1.39-4.58-1.43-6.87-1.77-2.92-.43-5.95-.1-8.82-.1-.2.46-.41.7-.36.88.26,1.17,2.7,2.33.95,3.25-1.48.78-2.47-1.55-3.43-2.76-.89-1.12-1.42-1.75.47-3.09,1.47-1.05,3.71-.77,4.55-2.68-3.86-.4-7.67-.39-11.35,1.1-1.74,2.29-4.5,2.39-6.91,3.23-3.51,1.56-6.12,4.12-8.18,7.3-.3,2.02-1.68,3.38-2.98,4.78-6.99,11.29-3.83,28.76,6.84,37.76,11.56,9.76,27.49,10.02,38.45.65.39-1.16,1.25-1.8,2.37-2.17.33-.77.09-1.77.82-2.37,4.95-4.12,6.14-10.13,8.02-15.8,1.51-9.87-1.6-18.23-8.29-25.43ZM199.88,618.21c-.4,10.49-4.88,17.96-17.52,18.52,0,0,0,0,0,0-2.75-.04-5.72.94-7.91-1.64-.21-.24.03-.86.06-1.3-8.22-8.73-9.17-21.04-2.36-29.13,2.45-2.91,5.63-4.4,9.18-5.34t0,0c.14-.61-1.65-1-.37-1.47.51-.19,3.06-1.72,2.6,1.27,12.74,1.21,16.66,10.17,16.32,19.09Z"/>
          <path class="cls-2" d="M204.79,639.93s0,0,0,0c0,.01,0,.03-.01.04l.02-.04Z"/>
          <path class="cls-2" d="M184.49,589.42c-2.27,1.19-2.41,2.14-.86,4.66-.99-2.18.02-3.3,1.97-3.2,3.71.19,7.28-.14,11.18,1.21,1.17.4,2.24.92,3.27,1.47.09-.04.17-.08.27-.13.19-.11,1.13.54,1.33,1.01,1.21.68,2.4,1.36,3.69,1.9-4.91-5.82-11.5-8.17-18.8-9.04.19,1.56-1.06,1.62-2.04,2.14Z"/>
          <path class="cls-2" d="M181.99,589.97c-1.88,1.34-1.36,1.97-.47,3.09.96,1.2,1.95,3.54,3.43,2.76,1.75-.92-.69-2.09-.95-3.25-.04-.18.17-.42.36-.88,2.88,0,5.91-.33,8.82.1,2.29.34,4.05,3.15,6.87,1.77-1.03-.55-2.1-1.06-3.27-1.47-3.9-1.35-7.47-1.02-11.18-1.21-1.95-.1-2.96,1.02-1.97,3.2-1.55-2.51-1.4-3.46.86-4.66.98-.52,2.23-.58,2.04-2.14-.84,1.91-3.08,1.63-4.55,2.68Z"/>
          <path class="cls-2" d="M201.68,594.51c.52,2.15,2.09,1.91,3.65,1.82-1.28-.55-2.48-1.22-3.69-1.9.01.03.03.05.03.08Z"/>
          <path class="cls-2" d="M174.51,633.79c-.03.44-.26,1.06-.06,1.3,2.19,2.57,5.16,1.6,7.91,1.64-2.8-.49-5.92-.13-7.85-2.94Z"/>
          <path class="cls-2" d="M174.51,633.79c1.93,2.81,5.05,2.45,7.85,2.94h0c-2.71-.75-5.42-1.47-7.85-2.94Z"/>
          <path class="cls-2" d="M183.56,599.12c.46-2.99-2.09-1.46-2.6-1.27-1.28.47.51.87.37,1.47.68-.79,1.43-.75,2.23-.2Z"/>
          <path class="cls-2" d="M183.56,599.12c-.8-.54-1.55-.59-2.23.2h0c.74-.07,1.49-.14,2.23-.2Z"/>
        </g>
        <path class="cls-2" d="M143.64,594.69c.64,2.04.78,4.12.77,6.25-.04,14.46-.02,28.92-.02,43.38-2.22.28-3.09-.58-3.08-2.92.01-2.66.36-5.28-.91-8.01-.7-1.5,1.09-3.74,1.05-5.93-.17-9.09,0-18.18-.12-27.27-.03-2.29.39-4.14,2.31-5.5Z"/>
        <path class="cls-2" d="M141.39,647.31c-1,0-2.01,0-3.01.01,1-.53,2-2.64,3.01-.01Z"/>
        <path class="cls-2" d="M591.63,587.92c9.24,0,18.49-.02,27.73.02,1.31,0,2.78-.5,3.89.73-9.24,0-18.49.02-27.73-.02-1.31,0-2.78.5-3.89-.73Z"/>
        <path class="cls-2" d="M389.52,596.73v35.33c-1.97-2.83-1.81-2.82-1.53-9.1.3-6.54.25-13.09.34-19.64.03-2.2,0-4.41,0-6.61.39,0,.79.01,1.18.02Z"/>
        <path class="cls-2" d="M382.35,627.55c0-3.14-.03-5.95.01-8.77.02-1.06.69-1.57,1.73-1.42,1.16.16,1.59,1.51,1.04,1.86-2.67,1.7-.97,4.12-1.31,6.18-.11.66.27,1.52-1.47,2.15Z"/>
        <path class="cls-2" d="M390.6,588.67c1.1.8.64,1.97.73,3.02-.42.22-1.21.44-1.21.66,0,3.81-2.43,2.22-4.45,2.1.81-2.83,3.82-3.51,4.93-5.78Z"/>
        <g>
          <path class="cls-2" d="M406.32,626.22s.02-.01.02-.02c0,0,0,0,0-.01l-.02.03Z"/>
          <path class="cls-2" d="M435.38,593.92q-2.45-6.75-9.45-6.74-5.87,0-7.51,5.91c-1.11,2.72-1.29,5.38.75,7.89-1.99-1.42-3.16-.71-3.82,1.18-.53,1.52-.85,3.14-1.43,4.63-.95,2.47-.72,5.49-3.2,7.3l.04-.02c-.05,1.38-1.42,3.4.57,3.9,2.06.52,2.74,1.9,3.73,3.29.71.99,1.3,2.39,2.75,2.26,1.61-.15,2.04-1.7,2.55-2.95.83-2.04,1.16-4.29,2.34-6.19.14-.54.25-1.08.33-1.64,1.07-2.76,2.15-5.52,3.32-8.53,1.94,1.91,2.04,4.35,2.79,6.49,1.35,3.88,2.65,7.79,3.93,11.7.41,1.26,1.24,2.73-1.06,3.09-4.02,1.26-8.04,1.28-12.06,0l-.2-.17-.25.07c.01-.27.06-.54.09-.8-.06-.02-.11-.04-.17-.05-1.42-.96-4.35,1.34-4.6-2.17-.09-1.28-.48-2.49-2.06-2.7-1.73-.23-2.41.97-3.01,2.25-.8,1.7-1.77,3.26-3.41,4.29.56,4.19-1.88,7.28-3.87,10.54-1.14,3.04-2.28,6.08-3.42,9.11.25,1,.54,1.92,1.89,1.84,3.83-.21,7.69.43,11.5-.37.72-.47.59-1.33.91-1.98,1.71-3.54,1.91-7.7,4.38-10.93,6.24.12,12.48.24,18.73.36,1.16,4.47,2.53,8.86,4.58,13.02,3.41-.24,6.83,0,10.24-.11,1.16-.04,2.53.43,3.2-1.09-6.36-17.56-12.71-35.12-19.08-52.67Z"/>
          <path class="cls-2" d="M419.96,625.49c4.02,1.29,8.04,1.27,12.06,0-4.02.63-8.04.65-12.06,0Z"/>
          <path class="cls-2" d="M427.41,625.29c-1.03-.02-2.06-.02-3.08,0,1.03.05,2.06.05,3.08,0Z"/>
          <path class="cls-2" d="M424.33,625.29c-1.46.03-2.91.09-4.37.2,4.02.65,8.04.64,12.06,0-1.53-.12-3.07-.18-4.6-.21-1.03.05-2.05.06-3.08,0Z"/>
        </g>
      </g>
      <g>
        <path class="cls-3" d="M400.2,336.11c1.87-2.67,3.73-5.33,5.6-8,4.89-3.88,9.67-7.85,11.69-14.1,7.47-9.76,16.93-17.71,24.42-27.51,23.07-30.17,33.37-63.8,31.25-101.9-2.47-44.36-19.31-81.59-51.93-111.54-19.04-17.48-41.21-29.73-66.61-35.46-6.21-1.4-9.74-4.45-10.86-10.64-.47-2.61-1.44-5.13-2.22-7.81,4.25-1.39,8.08.23,11.9,1.21,53.94,13.94,94.3,45.38,119.4,95.03,15.47,30.59,19.12,63.81,15.69,97.68-4.14,40.79-23.07,74.44-51.78,102.98-9.56,9.51-17.66,20.15-25.7,30.88-2.19,1.26-5.3.55-6.7,3.62-1.21,2.64-3.54,3.43-6.08,1.7-2.33-1.58-3.84-3.69-2.86-6.81.47-1.49,1.65-2.66,1.77-4.28l.12.32-.18-.29c2.61-.74,1.95-3.46,3.09-5.09Z"/>
        <path class="cls-3" d="M225.24,59.13c-15.19,11.56-29.31,24.15-40.33,39.98-15.44,22.17-25.41,46.34-28.24,73.32-.18,1.73-.88,3.42-1.33,5.12-3.78,17.43-.19,34.28,4.01,51.09,4.48,16.96,11.62,32.81,20.32,47.99,2.42,5.09,4.93,10.11,9.6,13.61l-.09-.08c4.7,5.61-.18,8.94-3.03,12.75-.34.54-.78.97-1.31,1.33-2.56.51-3.69-2.03-5.7-2.7l.27-.33-.24.35c-1.77-7.12-6.64-11.95-12.08-16.37-21.31-31.65-29.85-67.05-27.02-104.46,5.29-69.95,41.1-119.84,104.27-149.98,13.23-6.31,27.57-9.83,42.72-11.9-.53,2.03-1.05,3.46-1.26,4.92-1.27,8.79-5.9,13.06-15.11,14.56-11.71,1.91-22.13,8.2-32.94,13-1.56.7-3.8.29-4.32,2.66l.02-.02c-3.29.84-6.34,2.09-8.23,5.16Z"/>
        <path class="cls-3" d="M394.99,379.62c-2.44,11.66-5.88,23.04-6.77,35.11-.92,12.44-1.71,24.85-1.83,37.31-.1,11.1-1.7,21.8-10.08,30.17-.76.76-1.75,1.3-2.63,1.95-5.54,3.46-11.54,5.95-17.66,8.16l-.02-.06c-19.18.31-38.37.88-57.54.31-8.8-.26-17.58-.23-26.38-.38-16.67-2.62-28.96-16.67-29.36-33.37-.36-14.86-.88-29.71-1.33-44.56-1.01-1.59-.51-3.33-.53-5.01,1.56-1.59,2.27-.13,3.02.89,3.93,5.4,9.95,10.25,2.52,17.66-1.85,1.85-.24,5.97-.63,9.04.67-1.92,1.5-3.71,2.04-5.6.53-1.84.7-4.5,3.51-3.96,2.47.47,2.57,3,2.48,4.94-.29,6.13,2.51,13.27-5.44,17.08-1.2.57-1.06,2.37-1.06,3.72,0,1.58.38,3.09.84,4.6,1.71,5.65,2.1,6.27,9.54,14.22q4.13,4.42,9.58,2.6c1.07,0,2.12.14,3.16.4,6.72,1.38,13.48,2.16,20.35,1.93,17.14.01,34.28.01,51.41-.01,2.66,0,5.35.2,7.93-.68,1.76-.47,3.59-.49,5.38-.62,6.17-.33,9.07-4.31,10.73-9.66.76-2.1,1.43-4.23,1.99-6.4.44-1.34.53-2.72.53-4.13.03-7.38,0-14.74-.02-22.11.03-3.53.03-7.06.01-10.59.23-7.62,1.29-15.14,2.7-22.61.66-3.42,1.36-6.84,1.9-10.29.33-1.29.89-2.48,1.52-3.64.57-1.15,1.66-1.9,2.35-2.95,1.23-3.13,2.45-6.27,3.68-9.4,4.6-7.64,8.33-15.68,11.23-24.11v.02c2.88-1.87,4.22.85,5.4,2.29,5.45,6.66,4.49,13.69-2.56,19.42-1.25,1.01-.15,1.31.06,1.8.91,2.2.6,4.36-.01,6.53Z"/>
        <path class="cls-3" d="M267.03,475.95c-.88.09-1.93-.1-2.6.32-1.55.96,4.61,2.02.15,2.8-1.28.22-4.47.88-5.1-2.68-.64-3.59-6.84-3.26-6.58-8.28.03-.58-3.49.74-5.58,1.93.58-4.35.81-7.87-.75-11.92-1.4-3.64-5.19-10.28,3.53-11.91,1.24-.23,1.72-1.17,2.02-2.34.52-2-.27-12.62-1.48-15.99-1.36,4.4-2.58,8.33-3.87,12.51-4.24-6.4-3.78-13.4,1.25-18.36,1.62-1.6,1.81-4.29.55-4.35-6.22-.25-4.35-6.34-7.11-8.92-1.42-.96.24-3.05-1.45-3.9-3.97-18.04-9.35-35.6-18.94-51.55-4.12-6.84-8.77-13.36-13.18-20.03-.38-1.72-.24-3.65-1.72-4.94-5.75-5.01-10.84-10.58-14.77-17.17-1.22-2.04-3.91-.21-5.39-1.79-.4-.46-.8-.93-1.2-1.39-.11-1.36-1.45-2.75.1-4.07h0c3.11-1.16,6.46-.33,9.66-1.35,2.42-.77,4.86.06,6.36,2.42,1.39,2.17,3.48,3.33,5.79,4.2,8.97,7.64,15.24,17.46,21.78,27.05,4.85,3.07,5.6,8.92,8.87,13.07,4.6,7.21,7.39,15.27,10.95,22.97,1.53,5.14,3.93,9.99,5.12,15.25,1.12,5.36,3.12,10.49,4.01,15.91.87,4.01.23,8.17,1.16,12.17.07.65.06,1.31-.01,1.96-.99,5.13-2.9,10.23-.44,15.47.15.63.19,1.27.15,1.91-.57,3.23-.42,6.42.61,9.56.6,6.17.72,12.4,2.36,18.43.32,1.26.54,2.55.78,3.83-.12,4.01,4.8,5.33,4.96,9.2Z"/>
        <path class="cls-3" d="M311.59,356.3c-2.37-6.44-5.22-12.75-5.74-19.73-2.78-9.9-4.3-20.04-5.77-30.2-.32-2.24-.93-4.27.44-6.36,2.05-3.12,3.84.35,5.61.11,3.37-.44,7.15,1.26,10.11-1.64,5.14-4.74,7.91.04,11.22,2.77,3.39,6.2.24,12.25-.87,18.15-2.11,11.23-5.41,22.2-9.15,33.02-1.64,6.44-1.95,6.64-5.86,3.87Z"/>
        <path class="cls-3" d="M314.76,505.46c-16.59,0-33.18.04-49.78-.03-3.01-.01-7.18.67-7.3-3.74-.11-4.35,3.89-4.08,7.04-4.09,33.85-.02,67.7-.04,101.55-.02,3.1,0,7.13-.32,6.91,4.16-.21,4.37-4.28,3.68-7.31,3.69-17.04.04-34.08.02-51.12.02Z"/>
        <path class="cls-3" d="M362.54,384.64c.36-.25.75-.39,1.18-.44,1.45.51,2.22,1.56,2.48,3.04-4.78,4.8-6.55,11.49-12.59,16.05-5.54,4.18-11.34,8.95-16,14.56-8.38,10.1-19.32,17.75-27.33,28.19-2.71,3.54-5.77,6.07-9.61,8.57-4.7,3.06-9.12,7.43-12.57,12.45-3.35,4.88-6.81,10.3-14.2,9.4-2.6-5.79,1.48-9.65,4.16-13.81,1.95-3.04,5.44-4.52,7.97-7.1,8.55-8.7,16.04-18.53,26.41-25.34.56-.37,1.14-.82,1.44-1.39,5.9-11.27,17.58-16.78,25.73-25.8,1.42-.82,3.43-.27,4.51-1.91,1.31-2.19,1.74-4.88,3.84-6.59,1.46-1.51,3.62-1.92,5.17-3.27,1.23-.87,1.41-3.07,3.54-2.8,2.18-.92,4.48-1.66,5.87-3.8Z"/>
        <path class="cls-3" d="M338.14,210.29c-3.37-2.16-6.57-8.76-10.32-.37-5,.84-10.52.11-13.98,5.34-.81,1.22-2.56.26-3.38-.9-1.46-2.05-3.75-2.23-5.84-2.89-.17-2.89-3.07-4.24-3.88-6.78.09-3.17-1.64-6.02-1.61-9.17.02-2.04.18-4.12,2.31-5.17,2.02-.99,3.9-.4,5.62.89,1.25.94,2.3,2.1,3.47,3.13,2.09,1.83,4.18,3.31,5.17-.92,1.02-4.32,3.44-3.28,5.87-1.47,3.98,2.97,8.18,3.49,12.51,1.12,3.14-1.72,6.83.8,10.08-1.96,1.47-1.25,3.42,1.5,4.08,3.34,1.27,3.55,3.58,6.52,5.1,9.91.31.48.62.96.93,1.44-1.14,2.79-3.31,5.29-1.96,8.73.6,1.51.28,3.18-1.45,3.96-1.8.82-3.68.52-4.8-1.07-1.4-1.98-3.27-3.66-4.15-6-.75-2-2.2-1.86-3.8-1.16Z"/>
        <path class="cls-3" d="M315.42,511.01c12.53,0,25.06-.01,37.59,0,1.79,0,3.61-.09,5.35.21,1.98.34,4.06.91,4.22,3.52.16,2.68-1.88,3.36-3.86,3.8-1.5.34-3.1.32-4.66.32-25.73.02-51.46.02-77.19,0-1.56,0-3.15-.02-4.66-.35-1.81-.39-3.52-1.33-3.62-3.41-.12-2.51,1.88-3.44,3.9-3.84,1.73-.34,3.56-.25,5.34-.25,12.53-.02,25.06,0,37.59-.01Z"/>
        <path class="cls-3" d="M306.14,374.78c6.27.37,12.41-2.32,18.73-.8.66,1.09,1.77,1.88,2.07,3.2,0,.67-.01,1.57-.53,1.85-13.37,7.34-21.69,20.58-34.08,29.11-3.8,2.62-4.82,8.01-9.06,10.47-.75.6-1.53,1.15-2.35,1.66-.54.35-1.11.65-1.69.92-4.26.91-7.66,4.68-12.47,3.75-1.52-2.16,2.37-3.9.47-6.1.36-3.23,1.43-5.79,5.33-5.63.82-.03,2.39,2.31,2.29-.74.11-2.16,1.19-3.62,2.74-5.12,3.47-3.35,7.58-6.3,8.76-11.45.2-.85.79-1.96,1.52-2.13,7.48-1.78,8.62-10.25,14.54-13.59,2.19-1.23,2.21-3.8,3.73-5.41Z"/>
        <path class="cls-3" d="M306.14,374.78c1.24,3.32,1.3,6.14-3,7.14-.22.05-.6.06-.62.16-1.97,8.83-13.51,9.44-15.7,18.54-.74,3.08-4.3,6.31-7.37,7.78-3.12,1.49-2.94,3.35-3.03,5.73-.9.78-1.79.84-2.69,0-3.94-.35-4.91,2.26-5.38,5.37-3.67-1.87-4.64,3.57-7.87,2.89-1.77-3.52-1.88-7.18-.98-10.94,2.87-4.76,4.48-10.98,12.14-10.14,1.17.13,2.06-1,1.76-2.28-1.19-4.95,2.33-6.63,5.72-8.44,2.41-1.29,4.27-3.15,5.7-5.45.81-1.31,1.26-3.07,2.69-3.73,5.64-2.61,10.61-5.6,9.65-13.05,1.35-1.55,3.02-2.57,5.02-3.03,3.05,2.43,3.58,5.91,3.97,9.45Z"/>
        <path class="cls-3" d="M288.48,182.92c2.17-4.24,9.7-3.95,9.02-10.61,2.23-2.5,5.27-1.85,8.08-2,6.17-.34,12.42.75,18.49-1.15,2.92-.92,4.7.47,5.77,2.99.84,1.96.7,4.5,3.38,5.27,3.32,1.37,5.95,3.59,7.99,6.53-4.68,4.29-10.23,6.05-16.42,4.89-2.49-.47-4.69-.72-7.18,0-6.57,1.91-13.15,2.03-19.5-1.01-1.06-.51-2.06-.94-3.14-.28-5.86,3.6-6.14-.56-6.49-4.64Z"/>
        <path class="cls-3" d="M289.99,67.35c.84-4.09,1.67-8.18,2.51-12.27,4.48,8.85,5.62,9.32,15.78,6.16,4.37-1.36,8.72-1.33,13.12-.24,7.97,1.97,8.61,1.64,11.95-5.88.46-1.04,1.12-1.94,2.51-1.36,1.66,4.27,2.79,8.64,2.57,13.28,1.55,3.07-.66,6.67,1.36,9.68l-.05-.08c.9,1.99,1.06,4.05-1,5.26-2.39,1.41-3.96-.59-5.82-1.8-7.51-4.89-15.4-8.07-24.49-4.39-4.1,1.03-7.62,4.15-12.42,2.64-3.23-1.02-6.81-.88-4.74-6.06.56-1.39-.52-3.37-1.29-4.95Z"/>
        <path class="cls-3" d="M293.75,157.49c-1.8-3.4-2.02-7.16-2.51-10.86,3.94-3.15,8.62-4.32,13.49-4.45,8.85-.24,17.67-.12,26.17,3.15,1.23.47,3.08-1.74,4.88-.35,2.56,4.63-2.13,9.08-.32,13.69.15,1.11.1,2.15-.98,2.83-.72.55-1.65,1.21-2.42.83-8.27-4.05-17.01-2.06-25.5-1.65-4.83.23-8.44-2.6-12.81-3.19Z"/>
        <path class="cls-3" d="M288.48,182.92c1.66,3.23,2.97,7.91,6.83,1.54.79-1.3,1.79-1.07,2.64.03,5.61,7.31,12.79,3.79,19.34,2.37,2.93-.64,5.32-2.05,7.92.43,1.26,1.21,3.1,1.48,4.34.45,3.44-2.84,7.94-2.07,11.67-3.8,5.9,5.72,10.57,12.17,12.15,20.45-2.11-3.2-5.9-5.04-6.22-9.81-.19-2.85-2.6-.94-4.62-.77-4.33.37-8.28,1.55-12.39,2.51-4.91,1.15-8.42-1.82-12.12-5.07-1.16,2.68.79,6.4-2.83,7.47-3.33.99-4.49-2.23-6.53-3.75-2.01-1.5-3.46-5.21-6.48-3.39-2.97,1.8-1.69,5.13-.61,7.81.68,1.69,1.53,3.25.42,5.04-1.23-.16-2.18.2-2.71,1.4-.9-.07-1.81-.13-2.71-.2-1.38-.48-2.06-1.46-2.05-2.92.13-.62.45-1.14.92-1.54,2.05-.63,2.06-2.08.83-3.28-2.66-2.58-3.22,1.48-5.01,1.81-.6.27-1.22.41-1.88.46-3.3-.31-4.66-2.34-4.64-5.42.01-2.25-.15-4.45-.69-6.63,1.48-1.73,2.95-3.46,4.43-5.19Z"/>
        <path class="cls-3" d="M335.87,53.76c-.48.71-1.27,1.37-1.4,2.14-1.41,8.19-1.53,8.59-3.76,7.76-3.13-1.16-5.96,2.11-9.69-.76-3.14-2.42-8.58-1.94-12.71.32-1.87,1.02-3.67,1.39-5.7,1.44-9.1.24-9.83-.43-10.11-9.57.73-2.81.54-5.89,2.43-8.37,5.03,1.06,10.09,1.55,15.25,1.39,7.69-.23,15.44-.99,22.97,1.4,1.69.91,2.69,2.27,2.71,4.24Z"/>
        <path class="cls-3" d="M291.03,144.36c-1.97-6.1-2.54-12.4-2.8-18.77-.1-2.4-.6-4.79-.92-7.18,2.15-1.8,4.21-.92,5.8.63,2.74,2.66,5.95,3.27,9.52,2.96,4.87-.48,9.73.19,14.6.13,2.42-.03,5.07.33,5.79-3,.66-1.31,1.77-1.63,3.12-1.45,1.77.63,2.74,1.59,2.91,3.76.21,2.66,2.59,3.94,4.79,2.95,5.33-2.39,5.56,1.81,6.89,4.76-.38,1.81-.77,3.61-1.15,5.42-.95,1.1-.54,3.95-3.38,2.64-4.48-4.82-9.86-4.1-15.36-2.45-8.71,2.63-17.38,2.09-26.21.17-1.54,2.78-.71,6.82-3.6,9.43Z"/>
        <path class="cls-3" d="M293.75,157.49c.86-1.19,1.72-2.39,3.12-4.33.16,5.6,3.58,5.95,7.33,5.55,5.4-.58,10.74.17,16.34-1.31,4-1.06,9.25,2.57,13.94,4.1-.64,3.03-1,6.16-2.02,9.05-.9,2.57-.97,4.73.75,6.86-1.62.8-2.66.93-3.27-1.38-1.08-4.05-2.47-5.6-7.98-4.34-7.8,1.78-16.27.56-24.46.62-1.82-4.79-3.15-9.71-3.75-14.81Z"/>
        <path class="cls-3" d="M291.03,144.36c.15-1.99-.06-4.1.54-5.95,1.03-3.16,1.59-5.36,6.96-4.45,7.02,1.19,14.78,2.38,22.06-1.44,5.84-3.07,13.47-.45,16.39,4.71,2.37,3.16.77,5.65-1.35,8.07-5.56,1.5-10.98-.66-16.44-.63-7.31.04-15.17-4.17-21.9,2.4-1.73,1.69-3.82-2.6-6.04-.43-.07-.76-.14-1.52-.21-2.27Z"/>
        <path class="cls-3" d="M322.29,13.29c1.37,3.12,2.73,6.23,4.1,9.35.06,2.18.71,4.35.53,6.48-.18,2.14-1.49,3.48-4.03,3.51-1.44.02-3.05.2-4.26,1.49-4.52,4.85-4.54,4.83-7.84-.69-.45-.75-.69-1.66-1.66-2.1-3.14,1.18-.55,7.55-4.7,6.55-3.26-.78-5.07-4.65-3.99-8.69,1.32-7.23,4.62-13.67,8.09-20.04,4.72,7.51,8.39,8.61,13.75,4.14Z"/>
        <path class="cls-3" d="M300.45,29.19c-.15,3.47,3.72,4.85,4.28,9.87,1.25-4.96.58-9.04,4.69-11.28,1.82,3.14,3.65,6.3,5.46,9.45,2.75-.98,1.58-3.11,1.95-4.68.25-1.06.32-2.58,1.9-1.93,6.7,2.74,7.34-.97,6.85-6.15-.05-.57.53-1.21.81-1.82,2.75,4.69,3.51,10.06,5.18,15.12-1.17,2.54-3.04,4.62-5.61,5.51-9.12,3.17-18.42,2.37-27.68.67-1.1-.2-1.75-1.32-2.23-2.36,1.6-4.08,1.67-8.71,4.4-12.38Z"/>
        <path class="cls-3" d="M260.36,352.06c1.74,4.89,5.08,4.62,8.92,2.77,2.91-.58,5.8-1.32,8.81-.94,5.86,5.03,6.61,7.71,1.35,12.31-7.15,6.25-13.52,13.13-19.73,20.24-1.47,1.69-3.4,2.88-5.87,2.54-.62-.39-.96-.95-1.01-1.68-.91-2.53-1.95-5.03-1.41-7.82,3.04-4.2,7.13-7.39,10.67-11.11,5.17-5.42,5.18-5.81-.93-9.78-.77-.5-1.39-1.11-1.81-1.93-.35-.97-.4-1.96-.18-2.97.21-.68.6-1.22,1.17-1.63Z"/>
        <path class="cls-3" d="M253.55,388.58c5.55-2.41,9.11-6.97,11.94-11.95,1.51-2.66,2.95-4.67,5.95-5.65,4.47-1.45,6.63-5.72,9.6-8.87,2.33-2.47-2.41-4.38-1.93-7.13,5.34-3.11,9.56-.15,13.82,2.56.35-.05.68.02.97.21,1.55,2.15-.18,3.29-1.52,4.31-4.05,3.1-6.97,7.52-11.44,10.08-3.7,2.12-2.29,5.93-3.48,8.85-.28.59-.67,1.09-1.18,1.5-2.19,1.27-4.73.75-7.06,1.33-2.72.68-4.69,2.27-5.71,4.95-2.43,6.38-3.58,6.67-9.37,2.43-.59-.79-1.08-1.6-.6-2.63Z"/>
        <path class="cls-3" d="M304.68,211.16c3.88-2.16,6.79-1.98,7.46,5.32,3.57-9.83,9.98-6.93,15.68-6.56-.7,7.07-2.84,13.75-5.56,20.27-3.32-3.33-9.41-2.24-11.32-7.56-2.02,1.26-2.14,4.71-5.31,3.52-1.41-2.09-2.15-4.4-2.26-6.92,2.81-2.3-1.16-5.71,1.32-8.07Z"/>
        <path class="cls-3" d="M296.05,41.57c12.22,2.24,24.42,4.28,35.52-3.82,2.06,3.71,2.04,7.71,1.58,11.76-.42.69.39,2.35-1.76,1.6-8.99-3.17-18.3-.58-27.45-1.2-3.38-.23-6.76.01-9.01-3.19.22-1.75-.24-3.64,1.12-5.14Z"/>
        <path class="cls-3" d="M340.73,129.15c-2.04-2.14-3.91-2.97-8.27-2.6-3.41.29-5.23-1.23-4.89-4.21.23-2.01-.55-3.04-1.49-4.33,3-5.79,7.27-10.75,10.66-16.28,2.71-.97,2.45-3.32,2.61-5.52.16-2.16-.27-4.51,1.73-6.16,2.79,7.82,1.41,15.93.94,23.81-.3,5.05-.51,10.22-1.28,15.29Z"/>
        <path class="cls-3" d="M305.63,226.15c3.68-1.23,2.79-4.98,3.87-9.18,3.03,5.42,5.07,9.88,11.07,9.39,1.81-.15,1.46,2.36,1.69,3.82-1.11,6.6-3.97,12.48-7.76,18.99-4.36-7.63-7.05-15.15-8.87-23.02Z"/>
        <path class="cls-3" d="M260.25,353.65c0,.89.01,1.79.02,2.68-4.13,5.16-7.85,10.6-11.12,16.35-.68.13-1.21-.08-1.56-.69-1.8-6.88-6.37-12.57-8.31-19.39,1.92-7.62,9.02-6.44,14.28-8.39.94.81,1.87,1.62,2.81,2.43.2,2.93,3.11,4.38,3.87,7Z"/>
        <path class="cls-3" d="M285.84,531.11c-1.88-.91-2.74-2.23-1.65-4.27,1.24-2.33,3.39-2.52,5.74-2.53,12.05-.03,24.1-.16,36.15-.21,5.35-.02,10.73-.21,16.06.21,4.67.37,5.47,2.63,2.9,6.78-6.86,1.34-13.79.31-20.66.65-2.3-2.62.34-2.94,1.76-3.14,3.3-.48,6.65-.17,9.99-.3-13.75.8-27.5-.11-41.24.09,5.56.03,11.13-.13,16.68.08,1.95.07,4.86-.21,3.17,3.46-9.66.8-19.26-.34-28.87-.82Z"/>
        <path class="cls-3" d="M304.98,263.39c6.62,4.11,13.04,5.54,19.19-.98,3.62-3.84,4.02.73,4.44,2.28,3.14,11.63,4.59,23.41,1.76,35.36-2.71-2.49-1.72-5.81-1.98-8.85,0-1.81.03-3.63.04-5.44.11-3.6.13-7.19-1.76-10.45-1.74-3.36-4.1-5.08-8.01-3.3-3.59,1.64-7.32,1.59-10.92.14-3.41-1.38-4.89.32-5.9,3.15-1.33,1.44-.65,4.68-3.92,4.4-.5-5.62.67-10.95,2.81-16.1,1.36-1.22,2.8-.85,4.25-.21Z"/>
        <path class="cls-3" d="M341.07,90.06c-.02,3.29-.12,6.58-.05,9.86.08,3.34-1.38,3.8-4.03,2.36-1.57-1.27-1.5-3.14-1.79-4.88-2.1-12.44-8.82-18.84-21.32-20.26-1.56-.18-3.13-.2-4.54-1.03-.23-.25-.46-.5-.69-.76-.02-.9-3.37-2.07.36-2.69,7.76-1.29,14.94,1.41,22.26,3.05,1.02.23,1.87,1.74,2.54,2.81.99,1.58,2.12,3.16,4.08,2.63,2.17-.59,1.61-2.84,1.85-4.52,2.53,4.27.88,8.95,1.32,13.42Z"/>
        <path class="cls-3" d="M276.42,381.87c-.08-5.17-.74-9.9,5.74-13,4.63-2.21,7.88-7.31,11.75-11.11,5.04.04,5.99,4.53,8.27,7.58-.75,1.93-2.07,3.08-4.23,3.1-6.34,1.63-10.46,6.11-14.09,11.12-1.97,2.72-3.9,4.94-7.45,2.32Z"/>
        <path class="cls-3" d="M285.97,215.54c-3.15,4.26-6.7,8.15-10.66,11.68-1.09.97-1.63,3.09-3.51,2.14-1.63-.83-.98-2.82-.88-4.25.42-6.19,1.33-12.3,4.05-17.99,1.98-1.68,4.3-1.98,6.75-1.54,5.4.97,6.8,4.26,4.25,9.95Z"/>
        <path class="cls-3" d="M338.78,380.37c.36.32.72.65,1.08.97-1.54,5.19-2.05,10.94-7.79,13.79-1.98.99-3.79,2.28-5.6,3.56-.9.47-1.86.74-2.86.9-4.8-.2-8.82,2.89-13.5,3.2-3.62-1.95-2.89-4.29,0-5.86,4.46-2.42,7.78-6.4,12.34-8.59,3.81-1.83,3.01-7.56,7.57-8.66,3.11-2.25,5.9-.43,8.75.69Z"/>
        <path class="cls-3" d="M326.21,397.77c.14-2.92,3.11-3.19,4.73-4.16,2.75-1.65,5.66-2.05,4.14-6.55-1.25-3.68,5.69-1.65,4.79-5.72,5,1.53,6.31,6.49,9.25,9.93-1.2,3.8-2.94,7.3-5.79,10.17-3.91.74-7.3-2.02-11.16-1.63-2.16-.17-4.46.04-5.95-2.05Z"/>
        <path class="cls-3" d="M394.99,379.62c1.21-4.57-5.39-8.04-1.91-12.99,2.66-.07.91,3.39,3.05,3.63,4.68-9.36,3.35-16.19-4.03-20.68,1.11-3.15,2.55-6.11,5.06-8.41-.3,1.72-.73,3.43-.86,5.17-.22,2.89,1.88,4.68,4.04,5.46,2.65.97,2.18-1.91,2.85-3.35,1.89-4.08,4.73-3.58,7.85-1.51-5.97,10.59-11.15,21.57-16.06,32.68Z"/>
        <path class="cls-3" d="M316.79,298.53c-.82,1.51,1.91,6.97-3.65,3.23-1.69-1.13-3.73-.56-5.14.25-3.13,1.77-4.56.33-5.94-2.63-1.16,12.9,2.37,24.94,3.8,37.19-5.24-14.86-7.91-30.17-8.02-45.93-.87-1.71-.54-2.93,1.42-3.49.78,0,1.44.28,1.98.85,1.31,4.49,4.24,6.13,8.96,6.16,2.56.01,7.51-1.65,6.59,4.37Z"/>
        <path class="cls-3" d="M289.99,67.35c1.05,2.41,5.42,3.86,2,7.63-.63.7,8.18,3.58,9.04,2.16,2.15-3.56,5.21-.86,7.63-1.79,0,0,.32.4.32.4-4.08,5.19-10.78,7.59-14.26,13.42-3.68,4.25-1.69,10.3-4.68,14.76-1.02.49-1.99.47-2.87-.3-.71-12.22,1.42-24.22,2.83-36.27Z"/>
        <path class="cls-3" d="M285.97,215.54c1.03-7.64.04-8.4-11.01-8.41,1.58-7.03,4.38-13.48,9.09-19.02,2.55,1.13,3.62,2.82,2.45,5.65-1.33,3.23.09,4.9,3.37,5.31,4.1,2.71-.7,6.38,1.01,9.35.24.53.43,1.08.56,1.65-1.83,1.83-3.65,3.65-5.48,5.48Z"/>
        <path class="cls-3" d="M322.29,13.29c.45,5.25-4.25,4.89-6.62,4.64-4.55-.49-8.08-3.16-7.13-8.78.94-3.67,2.35-8.54,5.51-9.09,4-.7,3.87,5.09,5.97,7.77,1.17,1.5,1.54,3.62,2.27,5.47Z"/>
        <path class="cls-3" d="M299.29,287.76c-1.15.62-1.29,1.76-1.46,2.88-1.27-3.66-.85-7.3.09-10.94,2.21-1.13.54-4.22,2.72-5.36,1.37,1.16,2.99,2.25,4.72,2.09,7.4-.68,15.03.99,22.19-2.1,3.49,2.95,2.56,6.97,2.63,10.75-7.35-.42-14.69-1.09-22.07-.79-3.4.14-6.6.45-8.81,3.46Z"/>
        <path class="cls-3" d="M253.56,344.21c-.18,1.59-.73,3.8-2.43,3.19-5.51-2-7.99,1.91-11.05,4.9-2.46.64-2.03-2.03-3.25-2.82-1.47-4.44-6.14-7.72-4.81-13.18,6.53-.62,12.2,1.69,17.55,5.1-.09,2.93,2.8,1.67,3.98,2.81h0Z"/>
        <path class="cls-3" d="M338.14,210.29c.27-2.05,1.22-3.34,3.5-2.98,1.67.27,2.02,1.57,2.02,2.98,0,1.88.71,3.39,1.85,4.86,1.11,1.43,2.04,3.12,4.2,2.52,3.07-.85,1.08-2.94.69-4.3-1.11-3.87,1.64-5.53,3.88-7.54.55,2.57,1.09,5.13,1.64,7.7,1.67,3.02-1.18,7.11,2.28,9.71.13,2.38.25,4.75.45,8.47-8.31-6.91-14.22-14.35-20.52-21.42Z"/>
        <path class="cls-3" d="M272.08,492.19c5.68-.85,12.12-3.78,16.86-2.05,7.36,2.68,14.4,1.71,21.53,1.79,8.18.09,16.4.71,24.6-1.96,3.01-.98,7.03,2.61,11.21,2.22,3.18-.3,6.53-3.13,9.72.06-1.7,1.47-3.78,1.16-5.76,1.16-23.67.02-47.33.02-71,0-2.45,0-4.93.04-7.16-1.23Z"/>
        <path class="cls-3" d="M330.15,290.46c.08,3.2.15,6.39.23,9.59-1.22,18.08-5.64,35.42-12.14,52.27-.47.57-.94.6-1.42,0,3.48-13.37,7.08-26.71,10.36-40.13.89-3.62,1.01-7.47-.97-10.99-4.32-4.6-.32-7.52,2.15-10.76.6-.38,1.19-.37,1.78.01Z"/>
        <path class="cls-3" d="M206.72,309.18c-2.76.31-5.23.18-6.58-2.91-1.41-3.22-5.27-3.33-6.69-1.93-3.49,3.43-5.79.63-8.54-.44.16-1.69-.67-4.32,1.14-4.8,5.9-1.54,3.3-5.57,3.13-8.95,5.85,6.34,11.7,12.68,17.54,19.02Z"/>
        <path class="cls-3" d="M287.16,103.63c.91,0,1.81,0,2.72,0,2.4.46,3.33,2.47,4.5,4.24.32.5.6,1.03.86,1.57.93,2.14,2.07,4.13,4.18,5.35.72.49,1.39,1.04,2.06,1.6,1.55,1.41,3.47,2.03,5.46,2.49,5.34,2.58,10.97-1.16,16.33.77,2.01,3.18.84,4.24-2.59,4.18-5.78-.1-11.56-.03-17.34-.03-6.39-2.05-11.5-5.42-13.01-12.52-.69-1.52-2-2.51-3.18-3.61,0-1.34.01-2.69.02-4.03Z"/>
        <path class="cls-3" d="M159.35,228.63c-2.29-2.54-3.35-5.3-3.59-8.92-.62-9.13-2.02-18.2-3.1-27.3-.11-.89.09-2.04-.39-2.61-3.02-3.6-3.86-6.57,1.47-8.87.69-.3.22-2.59,1.6-3.38,1.27,14.62-.66,29.43,2.8,43.92.56,2.35.82,4.78,1.22,7.17Z"/>
        <path class="cls-3" d="M186,309.38c3.86-1.3,6.06-.31,8.47,3.51,3.08,4.88,6.45,9.92,11.98,12.91,2.91,1.57,3.25,4.54,1.43,7.48-7.29-7.97-14.58-15.93-21.88-23.9Z"/>
        <path class="cls-3" d="M291.22,110.34c1.31,6.93,7.62,9.37,12.11,13.44-4.35-.07-9.01.98-11.71-4.1-.78-1.46-2.73-1.28-4.3-1.27-.06-2.69-.11-5.38-.17-8.06,1.36-1.1,2.71-1.11,4.07,0Z"/>
        <path class="cls-3" d="M323.52,531.06c7.17.01,14.34.02,21.5.03-6.07,2.72-12.52.57-18.73,1.47-6.79,2.46-13.59,2.76-20.4.06-6.64-1.11-13.55,1.35-20.05-1.51,9.87-.01,19.73-.03,29.6-.04,2.69-2.22,5.38-2.22,8.08,0Z"/>
        <path class="cls-3" d="M324.58,535.27c-6.61,6.17-11.64,6.18-18.22.04,6.07-2.44,12.14-2.38,18.22-.04Z"/>
        <path class="cls-3" d="M167.1,285.19c6.71.63,8.52,6.58,12,10.8,1.73,2.1.3,3.72.08,5.57-4.8-4.89-8.76-10.39-12.08-16.37Z"/>
        <path class="cls-3" d="M392.12,349.56c-.75,9.43-5.13,17.17-11.23,24.11,2.91-8.42,6.2-16.67,11.23-24.11Z"/>
        <path class="cls-3" d="M292.93,357.55c-4.43-1.8-8.92-3.28-13.82-2.56-3.28-.05-6.55-.1-9.83-.15,9.37-4.48,19.15-3.36,23.65,2.71Z"/>
        <path class="cls-3" d="M304.68,211.16c-.34,2.71,4.18,6.2-1.32,8.07-1.36-4.46-2.72-8.93-4.08-13.39-.07-2.34,1.18-2.13,2.71-1.4.7,2.32,3.84,3.66,2.7,6.72Z"/>
        <path class="cls-3" d="M335.63,145.29c.45-2.69,1.82-5.22,1.35-8.07.87-.89,1.74-1.77,2.61-2.66.62,8.38-2.93,16.04-4.12,24.1-3.24-4.5,1.52-8.9.16-13.38Z"/>
        <path class="cls-3" d="M417.49,314.01c.68,5.15-4.93,11.91-11.69,14.1,3.46-5.06,7.25-9.85,11.69-14.1Z"/>
        <path class="cls-3" d="M356.01,492.33c-.15-.81-.3-1.62-.46-2.43,6.29,1.04,10.49-3.43,15.49-5.8.71-.33,1.74.03,2.63.07-4.92,4.81-10.56,8.07-17.66,8.16Z"/>
        <path class="cls-3" d="M232.02,336.3c1.79,4.43,3.59,8.85,5.38,13.28-.41.6-.81.59-1.2-.02-3.36-3.99-5.41-8.73-7.71-13.34,1.18.03,2.35.05,3.53.07Z"/>
        <path class="cls-3" d="M189.27,290.23c-6.72-2.06-8.05-7.92-9.6-13.61,3.2,4.54,6.4,9.07,9.6,13.61Z"/>
        <path class="cls-3" d="M338.78,380.37c-2.39.37-4.83-1.62-7.19.15-3.15.46-3.38-2.96-5.38-4.03-1.04-.52-1.31-1.45-1.34-2.51,5.02,1.29,10.27,2.09,13.91,6.39Z"/>
        <path class="cls-3" d="M316.81,352.33c.47,0,.94,0,1.42,0-.08,3.84-1.6,7.22-3.27,10.87-2.97-1.67-3-4.37-3.37-6.89,4.72,2.59,4.35-1.5,5.22-3.97Z"/>
        <path class="cls-3" d="M365.23,387.25c-.5-1.02-1.01-2.03-1.51-3.05,4.34-2.21,8.99-.8,13.49-1.13.09,1.17-.04,2.28-.98,3.13-3.78-.81-7.16,2.5-10.99,1.05Z"/>
        <path class="cls-3" d="M305.89,532.62c6.8-.02,13.6-.04,20.4-.06-.47.4-.93.8-1.4,1.2-6.23,1.08-12.46,1.04-18.7.02-.11-.38-.21-.77-.3-1.16Z"/>
        <path class="cls-3" d="M306.19,533.78c6.23,0,12.46-.01,18.7-.02-.1.5-.2,1-.31,1.5-6.08.01-12.15.03-18.22.04-.05-.51-.11-1.02-.16-1.52Z"/>
        <path class="cls-3" d="M343.77,400.78c1.71-3.21,2.59-6.89,5.35-9.5.46.07.91.15,1.37.22.51,1.63-.71,2.63-1.41,3.82-2.5,1.54-1.85,4.98-4.04,6.7-1.17.35-1.57-.09-1.26-1.24Z"/>
        <path class="cls-3" d="M225.24,59.13c.52-5.26,4.08-5.68,8.23-5.16-2.74,1.72-5.49,3.44-8.23,5.16Z"/>
        <path class="cls-3" d="M184.9,303.91c-.44,1.35,1.62,2.76-.1,4.07-1.88-2.15-3.77-4.3-5.66-6.44,2.57-.8,3.83,1.59,5.76,2.37Z"/>
        <path class="cls-3" d="M386.64,164.01c.6-.97.66-3.01,2.55-1.79,2.64,1.72,1.76,3.76.11,5.7-2.98.12-2.54-2.08-2.65-3.9Z"/>
        <path class="cls-3" d="M260.25,353.65c-1.88-2.01-5.4-3.11-3.87-7,2.12,1.22,3.39,3.07,3.98,5.41-.04.53-.07,1.06-.11,1.59Z"/>
        <path class="cls-3" d="M226.57,138.72c6.36,2.11,1.95,4.32.05,6.5-1.03-2.16-1.44-4.32-.05-6.5Z"/>
        <path class="cls-3" d="M295.25,201.75c.44,1.29.87,2.59,1.31,3.88-1.7,1.47-3.41,2.95-5.11,4.42,0,0-.27-.29-.27-.29-1.19-3.96.03-6.7,4.07-8.01Z"/>
        <path class="cls-3" d="M447.59,155.72c-.96-.17-1.82-.84-1.39-2.1.23-.66,1.07-1.41,1.76-1.56,1.21-.26,2.14.55,2.07,1.78-.06,1.16-.93,1.87-2.45,1.87Z"/>
        <path class="cls-3" d="M240,404.85c2.75.46.76,2.68,1.45,3.9-.02,1.83-.04,3.67-.06,5.5-2.13-2.89-1.02-6.26-1.38-9.41Z"/>
        <path class="cls-3" d="M228.19,245.74c-.21,1.28-.95,1.85-2.24,1.72-1.01-.11-1.67-.76-1.56-1.68.13-1.17.93-1.91,2.23-1.81,1.06.09,1.35.92,1.57,1.77Z"/>
        <path class="cls-3" d="M358.21,223.24c-4.47-2.37-1.6-6.45-2.28-9.71,2.46,2.84.52,6.71,2.28,9.71Z"/>
        <path class="cls-3" d="M386.64,164.01c.88,1.3,1.77,2.6,2.65,3.91-3.22,2.79-2.86-1.53-4.05-2.35-1.37-.94.59-1.24,1.4-1.55Z"/>
        <path class="cls-3" d="M339.8,76.71c-2.79-2.9-1.02-6.43-1.36-9.68,2.44,2.95.92,6.45,1.36,9.68Z"/>
        <path class="cls-3" d="M171.92,184.24c1.32.1,2.12.38,2.15,1.51.02.95-.31,1.77-1.36,1.93-1.26.19-2.32-.32-2.18-1.67.07-.69.99-1.29,1.39-1.77Z"/>
        <path class="cls-3" d="M400.2,336.11c-.35,2.11,1.17,5.35-3.09,5.09.83-1.82,1.29-3.86,3.09-5.09Z"/>
        <path class="cls-3" d="M391.31,86.18c.97.74,1.79,1.37,2.61,2-.69.49-1.32,1.12-2.08,1.42-1.33.53-2.08-.56-2.25-1.5-.08-.49,1.01-1.18,1.71-1.92Z"/>
        <path class="cls-3" d="M291.22,110.34c-1.36,0-2.71,0-4.07,0,0-.9,0-1.8,0-2.69,1.96-.01,3.95-.06,4.08,2.69Z"/>
        <path class="cls-3" d="M225.07,142.83c-1.21-.47-3.49.34-3.22-1.91.17-1.36,2.07-.96,3.25-1.22,1.02,1.05,1.04,2.1-.03,3.13Z"/>
        <path class="cls-3" d="M424.14,239.04c-.04,1.12-.86,1.53-1.75,1.66-.93.13-1.75-.24-1.9-1.32-.17-1.25.79-1.5,1.67-1.54.84-.04,1.78.06,1.98,1.21Z"/>
        <path class="cls-3" d="M362.54,384.64c-.62,3.32-3.17,3.68-5.87,3.8,1.38-2.16,3.5-3.16,5.87-3.8Z"/>
        <path class="cls-3" d="M349.07,395.31c.47-1.27.94-2.55,1.41-3.82.88-.08,1.77-.17,2.65-.25-.87,1.84-2.22,3.2-4.06,4.07Z"/>
        <path class="cls-3" d="M304.98,263.39c-1.42.07-2.83.14-4.25.21-.03-1.16.08-2.39,1.47-2.55,1.59-.19,2.25,1.08,2.78,2.34Z"/>
        <path class="cls-3" d="M253.55,344.21c-1.4-.83-5.59,2.29-3.98-2.81,1.5.69,3.26,1.01,3.98,2.81Z"/>
        <path class="cls-3" d="M225.07,142.83c.01-1.04.02-2.08.03-3.13.49-.33.98-.66,1.47-.98.02,2.17.04,4.33.05,6.5-1.58-.1-1.25-1.46-1.56-2.39Z"/>
        <path class="cls-3" d="M233.44,53.99c-1.42-5.52,2.89-1.76,4.32-2.66-1.44.89-2.88,1.77-4.32,2.66Z"/>
        <path class="cls-3" d="M217.44,52.13c2.77-1.19,4.89-1.45,7.39,1.08-2.94.71-5.15,1.55-7.39-1.08Z"/>
        <path class="cls-3" d="M184.44,295.67c-3.2-1.03-4.88-2.3-4.52-6.17,1.55,2.37,4.39,2.47,4.52,6.17Z"/>
        <path class="cls-3" d="M374.73,388.8c.09,3.61-.13,7.19-1.54,10.59-1.4,2.91-4.35,4.83-5.94,6.96-3.49,4.66-9.94,6.16-11.83,12.28-1.17,3.78-4.64,6.21-7.21,9.17-6.88,7.9-16.12,13.22-22.38,21.63-.54.99-1.08,2.15-2.09,2.56-6.77,2.79-10.14,8.36-12.55,14.82-.54,1.44-1.12,2.93-2.18,4.13-.79.63-1.7.97-2.67,1.16-3.63-.11-6.57,1.06-8.35,4.44-1.86,1.1-3.91.74-5.9.72-1.95-.01-4.98.35-4.98-1.99,0-2.29-.17-4.98,2.46-7.2,7.4-6.26,14.47-12.85,21.07-20.09,4-4.38,7.29-11.12,14.57-12.27,1.3-.21,2.88-1.21,3.14-2.32,1.58-6.92,8.71-9.52,11.64-15.31.89-1.75,2.5-2.45,4.09-3.26,3.48-1.79,6.2-4.35,7.89-7.92,1.19-2.51,2.72-4.51,5.69-5.18,2.97-.67,4.1-3.15,5.05-5.75,1.72-4.74,5.59-7.47,9.8-9.62,2.59-1.32,3.18.1,2.22,2.46Z"/>
        <path class="cls-3" d="M374.73,388.8c-.35-.68.32-2.65-1.7-1.1-4.33,3.34-9.45,5.93-9.74,12.49-.05,1.2-1.07,3.03-2.44,2.84-6.18-.85-7.71,4.18-8.65,7.91-.86,3.4-4.18,4.21-5.34,4.68-3.84,1.57-6.68,2.86-6.19,7.57.02.19-.18.57-.26.57-8.21-.52-6.84,8.13-11.01,11.49-1.91,1.54-3.5,3.41-6.34,3.13-1.32-.13-3.2.12-3.18,1.69.07,4.74-1.92,6.98-6.7,6.6-1.47,9.24-13.33,10.1-15.31,18.9-.45,2.02-1.88,2.4-3.5,2.29-2.12-.14-2.95,1.88-4.57,2.44-2.29.8,1.12,3.97-1.93,4.32.84,1.99,2.63,1.2,4.06,1.3,2,.13,4.02.03,6.04.03,2.78-2.46,6.21-1.78,9.46-1.97,4.05.24,8.35-1.02,11.92,2.02-.39,3.34-3.03,1.79-4.61,1.87-8.24.41-16.51-.43-24.74.5-6.97.76-13.73-.19-20.35-2.39,1.34-1.27,2.71-.97,4.08-.06,3.58.43,6-1.79,8.04-4.07,4.99-5.54,9.67-11.35,14.53-17.01.86-1,2.08-2.66,2.95-2.55,5.47.69,6.74-3.8,9.18-6.9,5.12-6.49,11.14-12.05,17.26-17.6,5.83-5.29,9.95-13.49,16.15-16.98,5.26-2.96,7.22-9.49,13.52-10.38.72-.1,1.65-.92,1.92-1.62,1.74-4.51,4.15-8.51,7.96-11.57,3.57-1.34,6.9-5.13,10.99-1.05-.07,1.11-.44,2.06-1.5,2.6Z"/>
        <path class="cls-3" d="M273.71,475.93c-1.36.02-2.72.04-4.08.06-.87-.01-1.73-.03-2.59-.04-2.7-2.2-5.75-4.13-6.24-8.04.7-.89,1.56-1.91,2.59-1.98,8.89-.6,12.66-8.77,18.42-13.45,5.87-4.77,11.14-11.1,15.98-17.35,3.34-1.54,5.73-3.85,7.57-7.18,3.31-5.97,9.29-9.63,14.31-13.9,3.72-3.16,6.65-6.39,8.62-10.7.96-2.11,2.21-3.94,4.91-3.91,2.95.64,6.6-.11,7.79,3.96-4.94,6.17-10.59,11.63-17.38,15.65-2.38,1.41-3.48,3.25-4.56,5.4-3.17,6.29-8.81,10.14-14.23,14.15-3.24,2.4-6.39,4.94-8.58,8.24-3.81,5.75-8.87,10.09-14.19,14.32-2.83,2.25-6.59,4.58-5.58,9.11.66,2.96-4.75,2.45-2.77,5.69Z"/>
        <path class="cls-3" d="M324.86,449.08c.2-6.86,7.33-7.5,10.76-11.52,2.21-2.59,4.92-5.02,7.41-7.56,4.94-5.05,9.89-9.74,13.55-16.06,2.32-4.01,7.63-6.27,11.48-9.45,1.85-1.53,3.43-3.39,5.14-5.1-.93,7.6-1.85,15.19-2.78,22.79-.62.33-1.18.27-1.68-.24-1.22-4.99-3.53-4.94-6.32-1.22-6.47,8.62-16.34,13.68-23.05,22.05-.84,1.05-1.81,1.97-2.11,3.3-.94,4.23-4.13,4.73-7.67,4.73-1.75-.08-3.48-.23-4.72-1.71Z"/>
        <path class="cls-3" d="M369.29,459.8c-.54,2.21-1.09,4.41-1.63,6.62-3.54-2.92-6.38-2.6-9.38,1.15-3.31,4.14-7.38,7.6-12.53,9.49-1.65.21-3.29.4-4.76-.65-1.74-4.56,3.27-4.82,5.01-6.82,1.5-1.73,3.31-3.23,4.35-5.43,2.78-5.88,8.8-8.58,13.08-13,1.23-1.27,3.36-.8,4.92.46,1.37,2.61.95,5.42.93,8.19Z"/>
        <path class="cls-3" d="M346.4,475.94c4.68-3.2,8.64-7.19,12.62-11.18q5.38-5.39,8.64,1.66c-1.57,5.4-4.13,9.79-10.53,10.23-2.11-1-4.2.26-6.3.08-1.61.46-3.17.71-4.43-.78Z"/>
        <path class="cls-3" d="M346.4,475.94c1.79.02,3.57.04,5.36.06.44.23.6.47.45.71-.14.24-.29.37-.44.37-1.69,1.27-3.63,1.57-5.68,1.56-18.71-.09-37.41-.17-56.12-.25,7.18-2.42,14.59-.38,21.85-1.1,2.57-.25,5.42.98,7.64-1.31.26-.25.51-.5.76-.76.96-.54,2.01-.79,3.1-.9,2.56-.15,5.12-.19,7.69-.2,3.41.2,7.02-.73,9.99,1.83,1.79,0,3.59,0,5.38,0Z"/>
        <path class="cls-3" d="M369.29,459.8c-1.65-2.47-1.36-5.28-1.36-8.03-2.03-2.3-1.93-5.11-1.89-7.91-.16-3.45,0-6.9.04-10.35-.03-2.62-.08-5.25.59-7.82.46-1.47,1.21-2.73,2.61-3.49.38,0,.76-.01,1.14-.03,0,3.64,0,7.28,0,10.92-.83,7.97-.79,15.94-.02,23.91.11,1.12-.07,2.13-1.11,2.8Z"/>
        <path class="cls-3" d="M370.39,457c-1.8-7.97-1.85-15.94.02-23.91,0,7.97-.02,15.94-.02,23.91Z"/>
        <path class="cls-3" d="M252.09,473.79c-.04.71-.32,1.59-1.07,1.14-.87-.51-1.47-1.51-2.07-2.38-.05-.08.87-1.17,1.27-1.13,1.28.13,1.7,1.21,1.86,2.37Z"/>
        <path class="cls-3" d="M351.78,477.07c0-.36,0-.72-.02-1.07,1.73.67,4.02-3.1,5.37.66-1.78.14-3.57.28-5.35.42Z"/>
        <path class="cls-3" d="M276.42,381.87c2.45.02,4.25-.08,5.9-2.93,2.18-3.75,6.04-6.49,8.89-9.91,2.22-2.66,4.47-.74,6.74-.6-.28,1.07-1.13,2.45-.75,3.17,2.82,5.36-.46,7.24-4.64,8.97-2.77,1.15-4.99,2.61-6.43,5.89-1.19,2.71-3.93,5.17-7.39,6.38-2.43.85-5.76,2-2.99,6.19,1.59,2.41.21,4.58-2.82,4.25-5.28-.57-9.14.42-9.97,6.53-.16,1.18-1.53,1.5-2.69,1.64-4.92-.72-1.15-6.37-4.52-7.96-1.24-5.4-2.47-10.8-3.71-16.2.49-.48.99-.5,1.51-.04,0,.45,0,.89.01,1.34.44.45.89.9,1.33,1.35.83,1.77,1.63,3.46,2.94,5.06,3.07,3.74,4.97,3.52,5.96-1.18.67-3.19,2.48-5.05,5.38-6.22,2.95-1.19,5.34-3.19,7.26-5.72Z"/>
        <path class="cls-3" d="M260.01,464c-2.97-6.51-1.99-13.5-2.47-20.32-1.13-2.03-.5-4.19-.48-6.31,3.32-1.63,3.01,1.63,4.09,3.01.6,2.15,1.35,4.24,2.4,6.22-.15,1.55.77,3.04.1,5.33,1.07-2.42-1.26-5.81,1.38-5.92,5.41-.23,6.08-4.5,8.17-7.69.87-1.33,1.9-2.61,3.33-3.24,5.51-2.45,9.91-5.94,12.28-11.7.78-1.89,2.43-2.52,4.45-1.74.98,2.42,4.1,1.65,5.42,3.6.96,2.46.63,4.54-1.76,6-2.69.79-4.88,2.29-6.4,4.69-1.01,1.09-2.09,2.14-2.97,3.35-5.33,7.56-11.02,14.75-19.75,18.71-1.37.62-1.83,1.85-2.61,2.91-1.28,1.74-2.26,4.06-5.18,3.09Z"/>
        <path class="cls-3" d="M260.01,464c1.68-.75,3.14-1.86,3.82-3.54,1.19-2.91,1.39-6.91,6.37-4.27.37.19,2.09-1.13,2.4-2.02,2.4-6.96,11.32-8.28,13.36-15.51.06-.21.81-.24,1.23-.35,1.31-1.53,3.74-1.25,4.89-3.04.5-.34,1.04-.59,1.63-.76,1.58-.27,3.09-.25,4.25,1.11,1.25,5.85-5.13,6.46-7.19,10.28-4.13,7.65-13.53,10.59-17.97,18.53-2.41,4.32-8.19,1.49-12,3.46-.26-1.3-.52-2.6-.79-3.9Z"/>
        <path class="cls-3" d="M236.2,349.56c.4.02.8.03,1.2.02.89.91,1.78,1.81,2.68,2.72,1.65,7.12,8.34,12.23,8.05,20.12-.32.43-.67.43-1.04.05-3.63-7.64-7.26-15.27-10.89-22.91Z"/>
        <path class="cls-3" d="M255.74,403.49c3.91,1.29,2.07,5.84,4.52,7.96-.28,3.58,1.74,7.16,0,10.75-.25.13-.51.26-.76.39-.58-.1-1.04-.4-1.34-.91-1.11-1.5.68-3.31-.52-4.81-2.21-4.24-.84-8.99-1.91-13.38Z"/>
        <path class="cls-3" d="M247.09,372.47c.35-.01.69-.03,1.04-.05,0,0,.08.05.08.05,2.72,1.41,3.89,3.75,3.98,6.72-.46,2.84.91,5.37,1.35,8.06-.5.01-1,.03-1.51.04-1.65-4.94-3.29-9.88-4.94-14.82Z"/>
        <path class="cls-3" d="M257.36,432.94c-4.05-4.9-1.35-9.84-.11-14.78,1.46,3.76,2.56,7.58,1.95,11.69-.23,1.26-.71,2.37-1.84,3.09Z"/>
        <path class="cls-3" d="M257.36,432.94c.15-.91.3-1.82.45-2.74.58-.34,1.17-.36,1.77-.06.84.56,1.41,1.32,1.76,2.26.33.95.48,1.93.53,2.94-.02,2.04.13,4.13-1.62,5.67-.82-1.35-1.64-2.69-2.45-4.04-1.08-.71-.91-1.63-.43-2.6,0-.47-.01-.95-.02-1.42Z"/>
        <path class="cls-3" d="M258.88,430.21h-.54s-.54,0-.54,0c-.19-4.01-.38-8.03-.56-12.04.14-.43.27-.86.41-1.29,1.91,1.4,1.09,3.51,1.37,5.33,1.9,2.71,2.24,5.38-.14,8.01Z"/>
        <path class="cls-3" d="M257.37,434.37c.14.87.29,1.73.43,2.6-.09,2.24-.17,4.48-.26,6.72-2.05-3.07-1.87-6.18-.17-9.32Z"/>
        <path class="cls-3" d="M328.9,290.46c.08,3.83-5.35,6.28-2.69,10.75-.62-.24-1.52-.29-1.83-.74-1.99-2.92-4.99-1.61-7.59-1.95-1.28-4.63-5.18-2.75-7.73-2.53-6.44.57-9.78-1.2-8.42-8.22,7.02-3.4,14.74-2.05,22.1-2.81,2.06-.21,7.36.09,6.16,5.49Z"/>
        <path class="cls-3" d="M341,403.38c-2.33-1.97-5.13-2.54-8.06-2.69-.41-.34-.67-.78-.76-1.31.08-.53.31-.98.72-1.33,3.92-.25,7.16,2.18,10.88,2.72.42.41.84.83,1.26,1.24-.25,3.67-2.3,2.05-4.03,1.37Z"/>
        <path class="cls-3" d="M326.21,376.49c3.47-.9,3.76,2.45,5.38,4.03-2.52,1.87-6.21,2.99-4.65,7.45.14.39-.5,1.52-.78,1.52-6.62,0-9.02,7.28-14.87,8.54-2.86.62-3.27,1.95-1.18,4.02.19,4.6-3.45,6.07-6.54,8-4.72,3.33-9.28,6.93-14.61,9.34-2.56.54-5.08.88-7.17-1.24,5.67-6.46,10.2-15,17.28-18.9,10.42-5.75,14.87-18.21,26.78-21.52.22-.06.24-.81.35-1.24Z"/>
        <path class="cls-3" d="M260.27,434.33c-.02-.92-.05-1.84-.07-2.76-.6-2.99,1.83-4.23,3.42-5.97,1.02-.7,2.03-1.48,3.38-.78,4.04-1.76,8.08-3.52,12.12-5.28.71.56,1.7.87,1.82,1.98-.12.64-.43,1.16-.95,1.55-5.46,2.47-10.94,4.87-15.13,9.42-1.14,1.24-2.49,2.66-4.59,1.85Z"/>
        <path class="cls-3" d="M267,424.81c-.88.5-1.77.99-2.65,1.49-2.55-.18-5.46,0-4.08-4.1h0c2.64-1.05,4.49-4.46,8.07-2.69,1.8,2.34-1.74,3.32-1.34,5.3Z"/>
        <path class="cls-3" d="M281.8,418.15c2.7-.02,5.4-.04,8.1-.07,2.08-1.05,4.14-1.92,5.63.87-1.36,2.92-4.62,1.17-6.56,2.66-1.01.34-2.03.38-3.08.23-1.97-.45-4-.79-5.47-2.38.46-.44.92-.88,1.39-1.32Z"/>
        <path class="cls-3" d="M273.72,414.13c.9,0,1.79,0,2.69,0-.14,1.38-.53,2.78-2.22,2.49-1.75-.3-.62-1.58-.47-2.49Z"/>
        <path class="cls-3" d="M280.41,419.47c1.85.25,3.99-.61,5.41,1.36-1.74,1.63-3.5,1.42-5.28.07-.48-.46-.95-.92-1.43-1.37.43-.02.86-.04,1.3-.05Z"/>
        <path class="cls-3" d="M295.25,201.75c-1.36,2.67-2.71,5.34-4.07,8.01-3.26-.42-2.89-2.61-2.17-4.74.65-1.96,2.28-3.72.86-5.96.45,0,.9,0,1.34,0,2.65-1.06,5-1.66,4.04,2.69h0Z"/>
        <path class="cls-3" d="M295.26,201.75c-.13-2.72-2.08-2.71-4.04-2.69.51-2.6,2.28-4.79,4.59-4.9,3.41-.16,1.62,3.38,2.49,5.13,2.49,4.99-2.41,1.13-3.04,2.46Z"/>
        <path class="cls-3" d="M252.19,379.19c-2.14-1.76-2.69-4.46-3.98-6.72,2.95-6.18,4.83-13.15,12.07-16.14.96,1.57,2.91.94,4.1,1.77,3.41,2.4,5.8,5.1,1.4,8.85-4.64,3.95-7.94,9.39-13.59,12.24Z"/>
        <path class="cls-3" d="M276.42,381.87c1.37,6.04-4.42,5.85-7.3,7.62-2.14,1.32-3.25,2.17-3.64,4.71-.37,2.39-.17,5.75-3.7,6.32-3.76.61-3.58-3.32-5.37-5-1.76-1.65-1.42-3.62-1.52-5.59,4.84,3.9,4.24,3.64,6.19-1.23,1.36-3.38,4.05-6.85,8.75-6.83,2.2,0,4.4,0,6.59,0Z"/>
        <path class="cls-3" d="M323.52,531.06c-2.69,0-5.38,0-8.08,0-4.8-2.86-10.04-.75-15.06-1.3-4.52-.49-9.18.69-13.6-1.95h59.31c-8.43,3.93-16.09-.22-22.57,3.25Z"/>
        <path class="cls-3" d="M327.55,274.33c-2.17,3.71-4.18,5.47-9.31,3.34-3.63-1.51-8.66.33-13.06.69-2.94.25-4.84-.65-4.55-4.03.9-4.62,2.83-6.69,7.66-3.71,2.76,1.7,6.34,1.95,9.01.25,5.22-3.31,8.07-1.35,10.25,3.45Z"/>
        <path class="cls-3" d="M328.9,290.46c-1.36-4.39-7.38-4.59-8.44-4.12-6.61,2.9-13.29.63-19.82,1.44-.45,0-.89,0-1.34-.02-.48-3.9.97-5.63,5.16-5.43,5.96.28,11.96.38,17.89-.05,3.28-.24,5.14,2.16,7.83,2.81-.01,1.79-.02,3.58-.03,5.38-.42,0-.83,0-1.25,0Z"/>
        <path class="cls-3" d="M303.41,408.79c2.67-1.81,4.93-4.03,6.7-6.73,4.25-2.12,8.45-4.38,13.45-3.99.44.49.65,1.08.67,1.73-.14.64-.45,1.17-.93,1.6-8.35,1.69-13.32,8.44-19.66,13.14-1.02-.23-1.74-.84-2.23-1.75-.65-1.99.43-3.12,2.01-4Z"/>
        <path class="cls-3" d="M323.52,399.33c0-.42.01-.85.04-1.27.88-.1,1.76-.19,2.64-.29,2.23.09,4.46.19,6.68.28.02.44.03.88.04,1.32-3.14,1.16-6.28,2.65-9.41-.03Z"/>
        <path class="cls-3" d="M294.11,87.55c-2.29,7.13-2.25,14.26-.06,21.41-1.39-1.78-2.78-3.55-4.17-5.33.64-5.56-.84-11.68,4.23-16.07Z"/>
        <path class="cls-3" d="M293.99,108.89c2.46,1.75,3.75,4.39,5.3,6.84-4.09-.48-4.76-3.61-5.3-6.84Z"/>
        <path class="cls-3" d="M300.6,116.93c2.11.24,3.86,1.15,5.18,2.83-2.32.14-4.26-.41-5.18-2.83Z"/>
        <path class="cls-3" d="M369.27,422.2c-.03,1.11-.27,2.11-1.35,2.69-4.81,3.26-9.59,6.56-12.18,12.05-.82,1.74-2.67,2.28-3.95,3.44-11.9,10.82-23.93,21.55-32.31,35.58,0,0,0,.02,0,.02-4.04,0-8.07-.01-12.11-.02-2.24-1.34-3.11-3.03-1.34-5.37.9,0,1.79,0,2.69,0,3.15-7.7,12.21-10.38,15.35-18.11,1.09-2.69,4.58-1.41,6.18-3.4,1.32-.13,3.76-.14,3.79-.42.67-5.78,6.68-7.27,8.96-11.26,2.33-4.09,4.73-7.45,9.08-8.68,5.3-1.5,5.51-7.56,9.78-9.87,2.19-1.18,3.19-5.35,6.11-4,2.72,1.26.85,4.84,1.31,7.35Z"/>
        <path class="cls-3" d="M330.24,449.08c-5.97,3.4-5.94,13.04-14.52,13.82-1.62.15-1.69,1.94-1.58,3.23.37,4.22-2.19,4.72-5.43,4.46,1.98-8.27,4.01-16.48,13.73-19.32.94-.28,1.62-1.43,2.42-2.18,1.79,0,3.59,0,5.38,0Z"/>
        <path class="cls-3" d="M306.02,470.59c-.21,1.96.43,3.7,1.34,5.37-3.14,0-6.28,0-9.42,0-.85-7.11,4.39-5.07,8.07-5.37Z"/>
        <path class="cls-3" d="M323.52,399.33c3.14.01,6.27.02,9.41.03-.02.44-.02.88,0,1.32-1.98.12-2.29,1.51-2.84,3.11-2.57,7.46-8.87,11.54-14.67,16.2-3.74,3.01-7.81,5.91-9.61,10.85-1.26,3.48-3.98,5.27-7.87,4.78h-5.38c-1.96-3.22,1.65-3.65,2.69-5.38,3.6-.44,2.44-3.26,2.69-5.38,6.52-5.85,13.4-11.45,18.69-18.4,2.03-2.67,4.4-4.12,6.87-5.85,0-.43.01-.87.02-1.3Z"/>
        <path class="cls-3" d="M367.92,443.7c0,2.69,0,5.38,0,8.07-6.77,1.92-12.31,6.55-15.26,12.08-2.53,4.76-6.09,6.98-9.95,9.53-1.07.71-1.54,1.44-1.69,2.56-3.59,0-7.17,0-10.76,0-1.83-4.66,3.46-3.83,4.7-6.13,7.8-8.12,16.77-15,24.4-23.32,2.06-2.24,4.64-5.21,8.56-2.77Z"/>
        <path class="cls-3" d="M319.48,475.95c-1.33-6.52,3.42-10.29,7.29-13.64,7.09-6.14,12.24-14.19,19.74-19.75,5.83-4.33,9.82-10.26,14.87-15.24,1.94-1.92,3.96-2.7,6.54-2.44,0,2.69,0,5.38,0,8.07-8.61,11.06-19.94,19.51-28.99,30.16-5.99,3.74-10.08,9.97-16.75,12.84-.9,0-1.8,0-2.7,0Z"/>
        <path class="cls-3" d="M322.18,475.95c5.2-4.69,9.02-11.03,16.14-13.43,2.71,3.89-2.54,5.13-2.69,8.07.29,3.86-5.63,1.51-5.37,5.35-2.69,0-5.39,0-8.08.01Z"/>
        <path class="cls-3" d="M335.63,470.58c.19-1-3.08-1.49-.56-2.7,2.4-1.15,2.86-3.16,3.26-5.36,2.82-5.74,8.69-8.78,12.29-13.79,4.68-6.52,11.83-10.21,17.32-15.78,0,3.58,0,7.17,0,10.75-3.78.29-6.21,2.67-8.72,5.23-7.46,7.64-15.1,15.1-23.58,21.65Z"/>
        <path class="cls-3" d="M280.54,420.9c1.76-.02,3.52-.05,5.28-.07.91,0,1.82,0,2.73,0,1.92-.85,3.8-1.25,5.53.39-.06.33-.13.66-.19.99-1.81.02-3.32.07-4.06,2.41-1.8,5.75-5.67,9.5-11.57,11.28-4.39,1.33-4.29,6.34-6.83,9.25-.67.77-.81,2-1.2,3.02-6.65-4.26-4.55,2.96-7.28,6.53v-8.31c-3.02-4.76.14-9.15,3.19-10.62,4.72-2.28,7.84-5.23,10.04-9.64.93-1.86,3.43-1.99,4.28-3.93.02-.43.05-.87.08-1.3Z"/>
        <path class="cls-3" d="M323.5,400.64c-3.4,4.25-6.9,8.44-10.18,12.79-1.78,2.36-4.26,3.66-6.73,4.88-.67.33-2.16-.72-1.75,1.13,1.49,6.68-3.34,5.22-6.89,5.44-1.34-.92-5.4,2.3-4.06-2.67,0,0,.03-.04.03-.04,1.33-1.6,3.63-1.45,5.07-2.85.39-.4.78-.8,1.15-1.22,1.1-1.29,1.6-3.09,3.28-3.88,5.2-6.73,10.62-13.13,20.08-13.58Z"/>
        <path class="cls-3" d="M280.46,422.2c.51.4,1.02.8,1.53,1.2-6.57,2.4-6.39,11.81-14.52,13.31-3.06.57-4.68,5.6-4.52,9.67-3.61-.44-2.43-3.28-2.7-5.38,0-2.23,0-4.45.01-6.68,6.14-5.02,11.41-11.5,20.2-12.12Z"/>
        <path class="cls-3" d="M295.26,430.26c-.9,1.79-1.79,3.58-2.69,5.38-.9.8-1.79.71-2.69,0,.39-3.2,2.18-4.99,5.38-5.38Z"/>
        <path class="cls-3" d="M289.87,435.64c.9,0,1.79,0,2.69,0-.44,3.6-3.27,2.43-5.38,2.69.04-1.75.94-2.64,2.69-2.69Z"/>
        <path class="cls-3" d="M260.26,422.2c-.25,2.96,3.18,2.27,4.08,4.1-1.38,1.76-2.76,3.52-4.14,5.27-.44-.45-.88-.9-1.32-1.35.05-2.67.09-5.34.14-8.01.41,0,.83,0,1.24,0Z"/>
        <path class="cls-3" d="M303.41,408.79c-.45,1.35-.91,2.7-1.36,4.05,1.18,2.59-.87,4.49-1.44,6.71l.04-.05c-1.79,1.09-3.57,1.67-5.33-.04-1.45-1.86-3.56-1.11-5.42-1.37,4.04-3.77,8.47-6.98,13.51-9.3Z"/>
        <path class="cls-3" d="M295.32,419.46c1.78.01,3.55.03,5.33.04-1.34,3.17-4.15,2.62-6.73,2.67-1.43-1.87-3.53-1.11-5.37-1.34,1.9-2.24,4.5-.96,6.77-1.36Z"/>
        <path class="cls-3" d="M300.61,419.55c-.49-2.44,1.1-4.44,1.44-6.71.46.46.92.92,1.38,1.38-.51,2-.94,4.05-2.81,5.33Z"/>
        <circle class="cls-3" cx="316.1" cy="99.31" r="24.96"/>
        <circle cx="314.32" cy="93.96" r="19.61"/>
      </g>
    </g>
  </g>
</svg>