<?xml version="1.0" encoding="UTF-8"?>
<svg id="Layer_2" xmlns="http://www.w3.org/2000/svg" viewBox="0 0 1442.97 339.82">
  <defs>
    <style>
      .cls-1 {
        fill: #ccc;
      }

      .cls-2 {
        fill: gray;
      }
    </style>
  </defs>
  <g id="Layer_1-2" data-name="Layer_1">
    <g>
      <path class="cls-1" d="M279.05,0c8.86,9.84,4.91,18.45-1.19,28.27-12.98,20.92-24.74,42.58-37,63.94-2.79,4.87-5.57,9.75-8.78,15.36,2.64.13,4.83.33,7.02.33,26.65.02,53.3,0,79.95.02,12.89.02,18.73,8.85,12.47,19.97-14.67,26.05-29.84,51.82-44.84,77.68-10.36,17.86-20.22,36.05-31.34,53.43-12.51,19.56-31.59,29.43-54.51,29.79-42.58.68-85.17.14-127.76.23-10.27.02-17.84-4.33-22.95-13-5.05-8.56-2.7-16.2,2.14-24.34,13.67-23.02,26.68-46.44,40.64-70.9-18.03,0-34.88.15-51.72-.07-8-.11-16.1-.29-23.98-1.55-19.27-3.08-20.29-24.22-13.04-36.39,13.63-22.9,26.73-46.1,40.24-69.06,11.2-19.04,22.04-38.35,34.42-56.62,4.06-6,12.46-9.06,18.84-13.53,1.51-1.06,2.83-2.37,4.24-3.57,59.06,0,118.11,0,177.17,0Z"/>
      <g>
        <g>
          <rect class="cls-2" x="398.2" y="82.92" width="53.38" height="174.18"/>
          <path class="cls-2" d="M645.26,100.86c12.17,13.22,18.26,31.37,18.26,54.47v101.76h-53.07v-94.58c0-11.66-3.02-20.71-9.05-27.16-6.04-6.45-14.15-9.68-24.35-9.68s-18.31,3.23-24.35,9.68c-6.04,6.45-9.05,15.5-9.05,27.16v94.58h-53.38V82.92h53.38v23.1c5.41-7.7,12.69-13.78,21.85-18.26,9.16-4.47,19.46-6.71,30.9-6.71,20.39,0,36.68,6.61,48.85,19.82Z"/>
          <path class="cls-2" d="M730.95,251.79c-11.86-5.2-21.23-12.33-28.09-21.38-6.87-9.05-10.72-19.2-11.55-30.43h52.75c.62,6.04,3.43,10.92,8.43,14.67,5,3.75,11.13,5.62,18.42,5.62,6.66,0,11.81-1.3,15.45-3.9,3.64-2.6,5.46-5.98,5.46-10.15,0-4.99-2.6-8.69-7.8-11.08-5.2-2.39-13.63-5.04-25.28-7.96-12.49-2.91-22.89-5.98-31.22-9.21-8.33-3.22-15.51-8.32-21.54-15.29-6.04-6.97-9.05-16.39-9.05-28.25,0-9.99,2.76-19.09,8.27-27.31,5.51-8.22,13.63-14.72,24.35-19.51,10.72-4.78,23.46-7.18,38.24-7.18,21.85,0,39.07,5.41,51.66,16.23,12.59,10.82,19.82,25.18,21.69,43.08h-49.32c-.83-6.03-3.49-10.82-7.96-14.36-4.48-3.54-10.35-5.31-17.64-5.31-6.24,0-11.03,1.2-14.36,3.59-3.33,2.4-5,5.67-5,9.83,0,4.99,2.65,8.74,7.96,11.24,5.31,2.5,13.58,4.99,24.82,7.49,12.9,3.33,23.41,6.61,31.53,9.84,8.12,3.23,15.24,8.43,21.38,15.6,6.14,7.18,9.31,16.81,9.52,28.88,0,10.2-2.86,19.3-8.58,27.31-5.73,8.02-13.95,14.31-24.66,18.89-10.72,4.58-23.15,6.87-37.3,6.87-15.19,0-28.72-2.6-40.58-7.8Z"/>
          <path class="cls-2" d="M1052.78,82.92l-109.25,256.9h-57.44l39.96-88.65-70.86-168.25h59.62l40.27,108.94,39.96-108.94h57.75Z"/>
          <path class="cls-2" d="M1227.11,100.86c12.17,13.22,18.26,31.37,18.26,54.47v101.76h-53.07v-94.58c0-11.66-3.02-20.71-9.05-27.16-6.04-6.45-14.15-9.68-24.35-9.68s-18.31,3.23-24.35,9.68c-6.04,6.45-9.05,15.5-9.05,27.16v94.58h-53.38V82.92h53.38v23.1c5.41-7.7,12.69-13.78,21.85-18.26,9.16-4.47,19.46-6.71,30.9-6.71,20.39,0,36.68,6.61,48.85,19.82Z"/>
          <path class="cls-2" d="M1282.99,122.56c7.38-13.53,17.68-23.93,30.9-31.22,13.21-7.28,28.35-10.92,45.42-10.92,21.85,0,40.11,5.73,54.78,17.17,14.67,11.45,24.29,27.58,28.88,48.38h-56.81c-4.79-13.32-14.05-19.98-27.78-19.98-9.78,0-17.59,3.8-23.41,11.39-5.83,7.6-8.74,18.47-8.74,32.62s2.91,25.03,8.74,32.62c5.82,7.6,13.63,11.39,23.41,11.39,13.74,0,22.99-6.66,27.78-19.98h56.81c-4.58,20.4-14.26,36.42-29.03,48.07-14.78,11.66-32.99,17.48-54.63,17.48-17.07,0-32.2-3.64-45.42-10.92-13.22-7.28-23.52-17.69-30.9-31.22-7.39-13.53-11.08-29.34-11.08-47.45s3.69-33.92,11.08-47.45Z"/>
        </g>
        <rect class="cls-2" x="396.85" width="55.34" height="55.34"/>
      </g>
    </g>
  </g>
</svg>