<?xml version="1.0" encoding="UTF-8"?>
<svg id="Layer_2" xmlns="http://www.w3.org/2000/svg" viewBox="0 0 795.99 323">
  <defs>
    <style>
      .cls-1 {
        fill: #fff;
      }

      .cls-2 {
        fill: #999;
      }
    </style>
  </defs>
  <g id="Layer_1-2" data-name="Layer_1">
    <g>
      <g>
        <path class="cls-2" d="M731.96,0c-.03.86-.09,1.73-.09,2.59,0,104.38,0,208.75,0,313.13v2.61c-.64.04-1.19.1-1.74.1-16.94,0-33.88-.02-50.81.04-1.46,0-1.84-.47-1.84-1.93.05-10.36.02-20.71.02-31.07,0-94.24,0-188.47,0-282.71,0-.92.04-1.84.06-2.76,18.13,0,36.26,0,54.39,0Z"/>
        <path class="cls-2" d="M795.99,299.66c-.51,2.03-.87,4.11-1.55,6.07-3.03,8.81-11.31,14.03-19.27,13.54-11.27-.69-17.73-9.41-18.9-17.67-1.88-13.22,8.48-24.92,21.21-23.96,9.06.68,17.04,8.63,18.13,18.04.05.46.25.91.38,1.37v2.6Z"/>
        <path class="cls-2" d="M293.6,178.1c-.64-8.88-2.46-17.55-5.32-25.93-7.88-23.08-22.14-39.91-44.28-48.74-14.31-5.7-29.21-7.15-44.4-5.78-11.73,1.06-22.64,4.79-32.74,11.12-8.78,5.5-16.19,12.58-22.31,21.16-.62.87-1.31,1.69-1.97,2.54-.13-.06-.26-.13-.39-.19v-30.53h-53.45v216.61h53.8v-2.38c0-35.79-.02-71.57.01-107.36,0-8.04.93-15.97,2.81-23.78,3.83-15.99,12.78-27.59,27.2-34.35,9.46-4.43,19.37-4.92,29.49-3.24,17.35,2.87,28.56,13.2,34.07,30.52,2.71,8.52,3.56,17.32,3.57,26.24.01,37.36,0,74.72,0,112.08q0,2.09,2.04,2.1c16.89,0,33.77,0,50.66,0q2.12,0,2.12-2.17c0-39.15.04-78.3-.04-117.45-.01-6.82-.39-13.64-.88-20.44Z"/>
        <path class="cls-2" d="M53.61,101.63c-16.53-.02-33.05.01-49.58-.04-1.46,0-1.93.36-1.93,1.97.04,70.98.04,141.96,0,212.95,0,1.61.49,1.96,1.94,1.96,16.63-.05,33.26-.03,49.89-.03q2.28,0,2.28-2.35c0-35.36,0-70.71,0-106.07,0-35.25,0-70.49,0-105.74,0-3.17.19-2.64-2.6-2.65Z"/>
        <path class="cls-2" d="M416.91,267.72c-6.34-.41-12.72-.64-19-1.57-8.52-1.26-14.37-6.17-16.74-15.15-1.72-6.49-1.97-13.16-2.01-19.8-.13-26.3-.07-52.59-.08-78.89,0-2.09,0-2.09,2.08-2.09,11.81,0,23.62,0,35.43,0q2.01,0,2.02-2.12c0-14.8,0-29.6,0-44.4,0-.59,0-1.18,0-2.07-.84,0-1.45,0-2.06,0-11.76,0-23.52,0-35.27,0q-2.19,0-2.19-2.27c0-26.84-.01-53.68.03-80.51,0-1.51-.41-1.9-1.82-1.89-16.89.05-33.77.05-50.66,0-1.52,0-2.08.47-1.88,2.02.07.53.01,1.08.01,1.63,0,65.71,0,131.43,0,197.14,0,12.08-.09,24.16,1.31,36.19.91,7.8,2.07,15.53,4.42,23.01,4.88,15.54,13.85,27.44,28.21,34.53,9.38,4.63,19.36,6.97,29.58,7.85,9.48.82,19.01.9,28.52,1.36,1.45.07,1.83-.45,1.82-1.93-.05-16.37-.04-32.75,0-49.12,0-1.39-.35-1.81-1.72-1.9Z"/>
        <path class="cls-2" d="M648.87,209.7c-.03-10-1.05-19.88-3.42-29.57-5.59-22.86-16.64-42.3-33.88-57.56-16.56-14.66-35.91-22.56-57.5-24.6-10.78-1.02-21.49-.75-32.14,1.32-21.14,4.11-39.58,13.94-54.91,29.61-22.03,22.51-32.78,50.17-32.65,82.39.04,9.44,1.09,18.79,3.35,27.95,5.92,23.93,17.65,44.07,36.3,59.4,17.7,14.55,38.06,22.22,60.44,23.98,11.71.92,23.35.12,34.9-2.17,25.6-5.08,47.01-17.95,64.58-37.98.55-.63,1.06-1.3,1.68-2.05-13.07-10.4-26.03-20.72-38.9-30.96-2.18,2.16-4.12,4.28-6.25,6.15-2.18,1.91-4.47,3.7-6.85,5.33-10.45,7.16-21.92,11.42-34.38,12.37-6.87.52-13.75.16-20.56-1.18-15.22-3-27.29-10.93-35.67-24.7-3.24-5.33-5.41-11.15-7.06-17.53h36.29c41.54,0,83.08,0,124.62,0q1.99,0,2-2.14c0-6.02.01-12.04,0-18.06ZM594.58,189.71c-7.3.02-14.61.03-21.91.04-28.03.02-56.05.04-84.08.05-.67,0-1.33,0-2.21,0-.1-3.21.5-6.05,1.4-8.81,3.66-11.2,10.73-19.52,20.16-25.76,7.74-5.12,16.26-7.88,25.33-8.97,11.95-1.43,23.56-.11,34.61,4.95,12.18,5.58,21.47,14.42,26.59,27.49,1.08,2.76,1.53,5.81,2.06,8.77.39,2.19.24,2.22-1.96,2.23Z"/>
        <path class="cls-1" d="M785.14,310.13c-.31.09-.4.13-.5.15-2.47.49-4.17-.32-5.26-2.88-.9-2.11-2.3-3.98-3.41-6-.85-1.56-2.2-.83-3.34-.8-.22,0-.58,1.2-.6,1.86-.07,2.53-.03,5.07-.03,7.71h-3.78v-23.95c4.12.21,8.2.15,12.21.71,2.91.41,4.55,3.21,4.57,6.49.02,3.16-1.5,5.39-4.36,6.35-.29.1-.59.17-1.25.35,1.94,3.37,3.8,6.62,5.75,10ZM775.41,296.82c.88,0,1.77.09,2.63-.02,1.87-.23,2.89-1.54,2.88-3.53-.01-2.12-.92-3.23-2.93-3.45-.87-.1-1.76-.05-2.63-.05q-3.37,0-3.37,3.49t3.41,3.56Z"/>
      </g>
      <rect class="cls-2" y="25.12" width="55.95" height="50.24"/>
    </g>
  </g>
</svg>