<?xml version="1.0" encoding="UTF-8"?>
<svg id="Layer_2" xmlns="http://www.w3.org/2000/svg" viewBox="0 0 1674.39 465.06">
  <defs>
    <style>
      .cls-1 {
        fill: #999;
      }
    </style>
  </defs>
  <g id="Layer_1-2" data-name="Layer_1">
    <g>
      <path class="cls-1" d="M166.02,53.56c-.64-1.72-.83-3.89-2-5.09-13.59-13.94-27.63-27.26-49.92-31.31C120.36,10.95,125.88,5.47,131.4,0c.64,0,1.28,0,1.92,0,6.34,6.7,12.3,13.79,23.03,13.29,1.81-.08,3.83,2.58,5.62,4.13,2.87,2.49,5.2,6.31,8.5,7.44,12.28,4.21,12.21,13.67,9.84,23.13-1.98,7.9-.93,14.44,3.8,20.58,6.88,8.94,7.41,18.32,3.72,28.77-3.22,9.11-5.31,18.62-7.9,27.95,1.07.3,2.14.61,3.2.91.98-3.51,1.81-7.06,2.97-10.51,5.45-16.21,10.95-32.4,16.53-48.57.81-2.36,1.72-5.05,3.47-6.61,1.64-1.46,4.57-2.39,6.7-2.06,1.2.18,2.98,3.54,2.72,5.18-2.27,14.41,4.48,26.71,8.85,39.55,5.81,17.05,3.3,31.61-9.8,45.18-7.66,7.93-13.41,18.18-18.18,28.25-4.86,10.26-10.41,18.08-22.64,18.96-1.46.1-2.86,1.19-5.59,2.4,3.32.92,5.43,1.5,7.48,2.06q-2.86,16.71,9.13,16.25c.24-.53.83-1.25.66-1.56-5.33-10.05-4.67-17.06,7.34-22.57,5.14-2.36,9.43-10.09,10.88-16.15,2.72-11.38,10.19-19.3,18.01-26.05,9.06-7.82,13.37-18.26,12.67-27.8-1.38-18.62,10.43-26.42,22.98-33.25,19.03-10.35,39.45-13.71,61.57-9.93,16.11,2.75,31.96,5.28,46.17,13.49,20.3,11.73,32.66,29.72,39.22,51.9,1.48,4.99,2.7,10.05,4.3,16.08-7.92,0-14.31-.38-20.64.1-7.06.53-10.07-2.53-10.22-9.23-.57-25.68-24.17-47.93-49.33-52.61-20.19-3.76-39.36-3.46-57.83,4.67-16.84,7.42-28.48,19.01-28.82,44.68-.28,20.7,7.54,32.85,28.33,39.89,25.06,8.49,50.63,15.5,76,23.08,24.09,7.2,48.94,12.6,70.11,27.07,7.63,5.22,14.29,11.84,22.56,18.81.77-3.09,1.96-5.59,1.91-8.06-.62-28.05.41-56.29-2.67-84.08-3.88-34.98-13.53-68.33-40.99-93.87-14.97-13.92-32.81-21.44-52.11-24.05-29.68-4.02-59.33-2.1-85.53,14.51-9.87,6.26-17.79,15.55-26.71,23.34-1.85,1.62-4.2,2.67-6.32,3.98-.99-2.42-2.41-4.76-2.9-7.28-1.69-8.62-3.06-17.3-4.86-27.78,32.23-27.4,73.2-30.71,115.12-26.3,43.44,4.56,76.11,27.92,101.41,64.02,0-16.06-.01-32.13,0-48.19.02-20.02-1.93-16.56,16.64-16.81,14.66-.19,29.32-.04,44.89-.04.23,4.31.55,7.7.56,11.08.04,48.17.03,96.35.05,144.52,0,12.8.27,13.09,12.62,13.09,40.67.01,81.34-.18,122.01.13,8.01.06,10.5-2.52,10.45-10.47-.29-48.49-.13-96.99-.12-145.48,0-3.78,0-7.55,0-12.11h54.03v343.53c-.71.57-1.42,1.13-2.13,1.7-8.77-9.45-18.59-18.15-26.09-28.51-14.85-20.53-25.68-42.94-26.26-69.16-.05-2.25-4.49-6.3-6.92-6.32-43.54-.39-87.09-.22-130.64-.37-6.65-.02-6.98,3.88-6.97,8.72.05,20.42.02,40.84.02,61.25,0,37.97.01,75.93.02,113.9,0,3.44,0,6.89,0,10.99h-61.9v-48.02c-3.9,3.33-6.35,4.97-8.23,7.1-18.32,20.72-41.2,34.11-68.48,37.5-22.96,2.85-46.65,5.47-69.43,2.95-45.97-5.1-83.58-25.83-105.76-68.66-1-1.93-1.93-4.11-2.07-6.23-1.32-19.97-2.45-39.94-3.69-60.8h58.04c4.92,13.77,8.63,27.38,14.59,39.92,6.43,13.54,19.4,20.15,33.36,24.06,22.24,6.23,44.96,6.22,66.9-.15,24.18-7.02,39.64-20.5,39.39-52.5-.2-24.74-14.2-35.07-37.66-42.92-23.34-7.8-47.61-12.78-71.22-19.84-16.25-4.86-32.06-11.16-48.06-16.81-2.02-.71-4.06-1.37-7.28-2.45,1.45,3,2.33,4.8,3.57,7.37-21.89,1.24-42.66,1.93-58.8-16.8-6.64,71.67,10.73,142.54-.3,213.78-10.66-3.71-14.14-9.34-11.69-20.21,7.58-33.69,4.29-67.85,2.79-101.89-1.17-26.74-2.27-53.49-3.29-80.24-.25-6.53-.04-13.08-.04-19.62-1.18-.04-2.36-.07-3.54-.11,0,6.92.18,13.86-.05,20.77-.22,6.52.38,12.76-7.55,16.94-4.18,2.2-6.13,8.41-10.61,12.37-8.74,7.73-17.32,13.46-29.12,15.42-8.78,1.46-17.12,5.58-25.89,8.59,4.35-17.35,7.36-34.63,13.09-50.96,7.97-22.73,26.01-32.21,49.6-30.94,9.03.49,12.43-1.69,10.28-11.27-.74-3.28,2.24-7.39,3.83-12.01-1.17.57-2.34.76-2.82,1.44-10.29,14.61-24.65,13.37-40.26,12.08-26.34-2.17-44.19-19.27-64.32-32.7-5.7-3.8-11.74-8.49-18.14-9.51-6.79-1.08-8.03-4.74-9.84-9.57-3.54-9.46-7.49-18.77-11.05-28.22-4.01-10.63-9.09-21.09-11.26-32.11-2.02-10.27,6.61-17.82,14.12-21.98,7.47-4.14,9.71-10.02,12.77-16.42,1.76-3.67,3.98-7.11,6-10.65-3.27,14.76,5.32,24.45,14.28,34.11-5.59-12.94-13.39-25.16-9.31-40.21,3.74-4.6,7.36-9.3,11.25-13.77,5.75-6.6,11.44-13.29,17.71-19.39,2.44-2.38,6.33-4.41,9.62-4.52,5.3-.16,10.7,1.2,15.99,2.29,10.21,2.11,20.55,3.87,30.46,6.97,5.77,1.8,10.81,5.92,16.16,9.03.53.31.87.95,1.38,1.32,8.5,6.04,17.01,12.07,25.52,18.1,2.01,20.66,4.03,41.31,6.05,61.97,1.68-14.85,2.43-29.6,1.31-44.22-.46-6.01-4.93-11.72-7.58-17.57ZM32.36,84.23c1.75,5.68,3.15,11.5,5.33,17.02,5.26,13.32,9.28,15.15,23.7,16.17,7.65.54,15.45,3.07,22.59,6.09,14.29,6.04,28.09,11.27,42.05-.58,1.51-1.28,4.08-1.35,6.17-1.91,4.48-1.19,9.89-1.18,13.2-3.81,3.45-2.73,4.88-7.99,7.07-11.94,3.28,3.71,6.56,7.95,10.39,11.63,8.84,8.5,12.5,18.55,10.55,30.7-2.11,13.17-3.88,26.4-6.14,39.54-.38,2.23-2.07,5.31-3.93,6.03-9.08,3.53-18.3,8.57-27.69,9.09-31.94,1.77-62.68-23.71-69.3-55.79-2.03-9.82-6.29-18.1-15.68-24.77,4.64,9.91,10.93,18.22,12.35,27.28,5.21,33.22,39.29,60.5,73.45,58.13,19.79-1.38,34.2-12.45,37.09-30.76,1.98-12.55,3.47-25.21,4.33-37.88.27-4.02-1.37-8.76-3.6-12.23-3.58-5.57-8.75-10.12-12.53-15.58-2.37-3.43-4.96-7.82-4.79-11.66.41-9.62-3.6-16.36-10.46-22.39-4.6-4.05-10.39-8.03-12.55-13.31-5.43-13.22-15.33-20.54-28.41-22.48-6.08-.9-13.99,1.68-19.15,5.35-9.43,6.69-17.65,15.16-25.92,23.35-2.72,2.69-5.73,6.81-5.68,10.24.14,10.26,7.84,16.34,14.36,23.95-1.78-7.27-5.23-13.53-4.32-19.09,2.64-16.14,16.18-35.26,37.12-30.48,8.9,2.03,17.43,6.59,25.37,11.28,2.35,1.39,3.85,7.74,2.75,10.73-3.4,9.3-8.23,18.08-12.27,26.57,11.02-.84,12.2-2.06,13.88-13.45.79-5.39,2.27-10.69,3.67-17.11,3.04,3.21,4.95,5.32,6.96,7.33,2.03,2.03,4.39,3.78,6.19,5.98,5.45,6.69,3.64,12.18-4.73,14.31-11.78,3-23.8,5.22-35.39,8.84-21.85,6.81-62.26-3.07-76.01-24.39ZM100.18,101.82c8.3-1.51,15.23-9.99,15.26-20.3.02-7.05-2.96-12.75-10.74-14.9-13.48-3.73-19.46-1.43-26.67,10.86-4.68,7.97-3.68,15.08,3.4,21.27,2.41,2.11,5.43,3.52,9.81,6.29-1.61-4.26-2.36-6.26-2.66-7.05,4.8-2.76,9.1-5.22,13.39-7.69-.46-.82-.92-1.64-1.39-2.46-3.12,1.3-6.16,3.37-9.37,3.68-3.08.3-8.42-.38-9.13-2.11-2.05-5,.17-9.13,6.13-10.58,3.97-.97,7.74-2.79,11.72-3.63,3.42-.72,7.02-.59,10.54-.83.19,3.6,1.64,7.78.3,10.69-2.76,5.98-7.01,11.28-10.59,16.77ZM105.24,277.05c.55.49,1.1.98,1.66,1.47,13.03-11.76,26.11-23.46,38.98-35.4,1.04-.97.59-3.53.83-5.36-.99-.61-1.97-1.22-2.96-1.83-12.83,13.7-25.67,27.41-38.5,41.11ZM198.64,247.53c-8.81-10.62-16.68-20.11-25.05-30.22-.92,10.51,7.96,21.1,25.05,30.22Z"/>
      <path class="cls-1" d="M662.03,371.48c10.88,11.39,21.82,24.41,34.41,35.6,12.72,11.3,28.5,17.58,45.77,18.11,17.11.52,34.51,1.86,51.32-.46,43.69-6.02,81.7-29.45,95.73-79.46,5.04-17.99,7.28-35.91,7.24-54.44-.17-83.91-.07-167.83-.07-251.74,0-3.76,0-7.52,0-12.02h34.11c0,3.78,0,7.18,0,10.58,0,83.28,1.11,166.57-.48,249.82-.8,41.54-7.25,82.93-30.97,118.96-16.25,24.68-38.42,42.55-67.76,49.14-17.22,3.87-34.99,6.5-52.61,7.16-30.8,1.15-57.22-10.3-79.43-31.78-16.28-15.75-27.53-34.63-36.57-55.03-.83-1.87-.65-4.19-.68-4.42Z"/>
      <path class="cls-1" d="M1000.69,349.8c11.23-.05,13.25-7.08,13.32-16.51.27-34.09,1.12-68.18,1.31-102.28.08-14.94-2.71-17.5-17.36-19.82h55.61c-9.55.83-12.4,6.81-12.37,15.58.04,12.42-.72,24.86-.48,37.27.04,2.08,3.37,5.86,5.23,5.89,26.51.39,53.02.26,80.25.26,0-16.19.3-31.33-.1-46.46-.28-10.87-8.98-11.47-17.02-12.71h56.27c-9.21,1.39-12.6,6.61-12.48,15.94.45,36.35.29,72.71.4,109.07.02,8.17,4.39,12.11,12.43,12.72,18.29,1.38,24.41-2.05,32.24-18.87,17.41-37.43,34.72-74.92,52.13-112.35,1.56-3.36,3.58-6.51,6.51-11.79,3.33,5.86,6.01,9.91,8.05,14.27,16.82,35.94,33.34,72.02,50.39,107.85,5.24,11.02,11.42,21.91,26.41,22.05h-45.21c-4.63-11.78-9.52-22.71-13.21-34.02-3.58-10.98-10.3-14.72-21.58-13.49-9.81,1.07-19.8.8-29.7.72-5.72-.05-8.5,2.66-10.47,7.71-2.99,7.69-6.89,15.02-9.94,22.68-4.3,10.81-2.39,14,11.05,16.71h-110.4c11.13-.37,13.64-7.25,13.54-16.69-.17-17.74-.05-35.48-.05-53.87h-84.46c0,14.65-.03,29.19.03,43.72,0,2.22.57,4.43.7,6.66.98,16.88,2.03,17.95,18.86,19.76h-59.92ZM1272.9,294.69c-7.35-17.59-14-33.5-21.78-52.11-8,19.04-14.73,35.04-21.91,52.11h43.69Z"/>
      <path class="cls-1" d="M1556.58,170.57c-18.8-32.63-36.4-63.17-53.99-93.7-.7.1-1.39.21-2.09.31-1.3,8.62-2.55,17.25-3.9,25.86-2.27,14.4-4.8,28.77-6.85,43.2-2.19,15.39-1.29,16.46,13.94,21.77h-43.42c11.8-2.1,13.31-11.36,14.89-20.37,6.43-36.88,12.72-73.79,19.15-110.67.68-3.92,1.91-7.75,2.89-11.62,1.08-.31,2.17-.61,3.25-.92,20.61,36.36,41.22,72.71,62.95,111.03,21.14-37.92,41.36-74.21,62.6-112.3,1.97,3.69,3.41,5.31,3.72,7.11,6.62,38.82,13.31,77.62,19.53,116.5,2.17,13.54,9.66,20.01,23.04,20.8h-44.77c-4.86-31.28-9.58-61.64-14.3-92-.85-.25-1.71-.49-2.56-.74-17.52,31.02-35.03,62.04-54.07,95.75Z"/>
      <path class="cls-1" d="M732.55,390.47c6.03,0,12.08-.27,18.09.05,29.33,1.55,66.64-26.78,76.59-55.73,8.37-24.33,10.96-49.36,11.03-74.75.21-73.69.13-147.38.17-221.06,0-3.77,0-7.55,0-12h18.99c0,4.61,0,8.95,0,13.29-.02,82.62.19,165.24-.22,247.86-.1,19.23-2.48,38.39-10.5,56.38-10.26,23.01-28.7,36.93-51.51,45.63-20.55,7.84-41.52,10.1-62.65.34Z"/>
      <path class="cls-1" d="M1353.86,350.55c11.62-2.65,14.2-4.93,14.84-18.01.72-14.64.39-29.33.43-43.99.05-18.81.06-37.63,0-56.44-.05-16.34-1.83-18.35-17.79-22.74,26.69,1.47,53.8.54,79.94,5.12,22.6,3.96,27.47,28.44,11.36,45.11-3.47,3.59-7.32,6.83-11.44,10.64,6.77,3.58,13.06,6.41,18.83,10.06,14.22,8.98,22.01,21.84,18.06,38.66-3.75,15.95-15.59,25.75-31.32,28.73-12.66,2.4-25.85,2.38-38.83,2.75-14.69.43-29.4.1-44.1.1ZM1393.46,278.1c0,14.63-.02,28.88,0,43.13.03,18.71,4.3,22.9,23.1,22.63,2.23-.03,4.47-.3,6.67-.63,14.13-2.1,23.1-13.96,20.79-27.97-4.63-28.13-25.44-41.96-50.57-37.16ZM1402.46,270.67c5.32-.32,8.25-.13,11.01-.72,13.16-2.8,20.51-17.08,16.36-31.46-4.43-15.34-20.24-26.12-32.04-21.31-2.07.84-4.05,4.6-4.15,7.08-.45,11.4.19,22.85-.35,34.24-.41,8.69,1.62,13.84,9.16,12.16Z"/>
      <path class="cls-1" d="M1561.34,350.66c8.12-2.84,11.77-7.62,11.82-16.36.17-34.4,1.16-68.79,1.26-103.19.04-15.31-2.4-17.36-19.79-20.06,25.78,0,48.96-.89,72.02.36,12.52.68,25.38,5.54,29.36,19.21,4.01,13.79-1.43,25.5-13.4,33.92-2.25,1.58-4.11,3.7-6.46,5.85,7.13,3.61,14.06,6.15,19.88,10.25,12.41,8.75,20.74,20.31,17.78,36.4-3.01,16.39-14.35,26.66-29.71,30.22-13.11,3.03-27.05,2.81-40.65,3.29-14.01.5-28.05.11-42.08.11ZM1598.97,278.34c0,14.28,0,28.84,0,43.4,0,19.16,2.67,21.86,21.92,22.09,2.23.03,4.46-.26,6.69-.51,14.52-1.64,23.22-11.46,21.91-25.9-2.25-24.8-20.31-45.42-50.52-39.08ZM1598.99,243.3c.08,0,.17,0,.25,0,0,6.97-.35,13.98.21,20.91.17,2.11,2.7,5.64,4.35,5.75,5.95.41,12.35.82,17.9-.91,13.05-4.06,17.76-18.24,12.37-34.27-3.95-11.73-19.65-21.52-30.04-18.13-2.18.71-4.57,4.25-4.82,6.69-.67,6.59-.23,13.3-.23,19.96Z"/>
      <path class="cls-1" d="M1255.61,167.77h-48.76c-.55-4.65-.22-8.95-1.65-12.55-3.74-9.42-8.56-18.41-12.34-27.82-2.05-5.1-4.66-7.55-10.48-7.37-12.47.39-24.99-.34-37.43.43-3.51.22-8.01,3.3-9.91,6.39-3.81,6.15-6.28,13.15-9.04,19.91-6.33,15.47-6.07,15.93,10.34,20.82h-50.28c17.29-.71,21.85-14.18,27.61-26.61,17.04-36.84,34.2-73.62,51.37-110.4.88-1.89,2.25-3.56,4.43-6.94,2.78,4.43,5.21,7.53,6.83,10.99,16.71,35.63,33.17,71.38,49.96,106.97,5.98,12.67,11.55,26.32,29.35,26.19ZM1185.68,111.12c-7.1-16.81-13.77-32.61-21.64-51.24-7.99,18.64-14.75,34.38-21.97,51.24h43.61Z"/>
      <path class="cls-1" d="M1002.6,132.05c.85,3.02,1.67,6.05,2.56,9.06,6.33,21.41,37.41,29.87,53.87,14.67,9.05-8.36,10.48-22.63,1.49-31.52-8.51-8.42-18.86-14.97-28.11-22.67-6.84-5.69-14.08-11.22-19.65-18.04-18-22.03-7.72-51.1,20.58-55.88,14.48-2.44,29.73-.69,44.61-.13,2.05.08,5.54,4.21,5.61,6.54.21,6.8-.98,13.64-1.69,21.15-11.77-21.25-24.43-27.19-43.9-21.16-14.52,4.5-19.23,21.58-8,31.74,9.15,8.27,20.03,14.61,29.4,22.67,8.59,7.4,18.27,14.74,23.8,24.24,13.15,22.59-.31,49.61-27.87,54.87-14.66,2.8-30.32.98-45.49.25-7.75-.37-11.43-5.19-10.22-13.8,1-7.07.2-14.4.2-21.61.93-.12,1.87-.24,2.8-.37Z"/>
      <path class="cls-1" d="M1264.62,168.08c17-1,14.29-13.47,14.47-24,.49-28.98.89-57.97,1.27-86.96.05-4.14-.25-8.28-.38-12.42-.3-9.73-4.01-15.93-15.11-14.66-1.01.11-2.1-.53-3-2.14h64.43c-3,1.15-4.54,2.35-5.87,2.16-10.82-1.58-14.88,4.67-14.85,13.76.11,33.44.9,66.88,1.07,100.33.05,9.82,5.55,14.03,14.02,14.61,10.18.7,20.49.72,30.66-.02,9.28-.67,14.61-6.96,16.9-16.02.85.25,1.69.49,2.54.74-1.11,7.05-1.88,14.17-3.57,21.08-.39,1.57-3.94,3.37-6.05,3.38-32.18.21-64.36.15-96.54.15Z"/>
      <path class="cls-1" d="M1441.32,29.2c-1.95.34-4.28.11-5.76,1.12-3.5,2.39-7.53,4.83-9.59,8.29-1.78,2.99-1.53,7.4-1.54,11.19-.07,30.28,0,60.57.05,90.85,0,2.23-.2,4.52.23,6.68,2.78,14.2-1.19,17.98,17.64,18.21,1.5.02,2.99.51,4.4,1.94h-64.4c2.7-1.14,3.94-2.14,5.14-2.09,7.97.28,10.59-4.06,10.73-11.28.37-19.09,1.12-38.17,1.43-57.26.24-14.98.11-29.96.05-44.95-.07-18.2-.79-19.11-17.26-23.86h58.72c.06.39.12.78.18,1.16Z"/>
      <path class="cls-1" d="M1480.09,210.94h52.47c-12.17.81-13.95,9.26-13.97,18.8-.06,32.54-1,65.12.33,97.6.92,22.35,1.15,19.18,21.04,22.72h-59.26c10.19-2.04,11.83-9,11.76-18.24-.25-35.06,0-70.12.32-105.18.09-9.07-3.35-14.48-12.69-15.7Z"/>
      <path class="cls-1" d="M1359.9,461.86v-68.39c11.95,1.34,25.08,1.36,37.34,4.61,11.69,3.1,13.88,16.09,5.87,25.4-2.02,2.35-4.2,4.56-6.96,7.55,7.85,10.1,15.96,20.54,23.91,30.77-14.99,1.57-22.64-3.15-31.62-19.73-1.32-2.44-2.49-5.27-4.53-6.96-3.67-3.02-7.46-2.87-7.77,2.89-.43,7.97-.11,15.98-.11,23.86h-16.11ZM1376.28,430.53c6.15-2.03,14.04-2.95,14.39-5.08,1.07-6.61.15-13.95-1.82-20.45-.82-2.7-6.25-4.02-9.59-5.97-.99,3.42-2.57,6.8-2.84,10.28-.47,6-.13,12.05-.13,21.21Z"/>
      <path class="cls-1" d="M1091.94,393.33c17.13,15.96,32.38,30.17,48.73,45.39v-43.58h9.72v67c-.98.57-1.96,1.13-2.94,1.7-16.26-14.4-32.53-28.8-49.7-44.01-3.14,20.61-1.73,34.36,3.65,41.44-12.16,1.39-12.91.82-12.77-11.11.16-14.65.37-29.31.84-43.95.12-3.61,1.34-7.18,2.48-12.88Z"/>
      <path class="cls-1" d="M1005.47,395.12h16.47c-2.38,17.37-4.2,34.14.39,51.12,2.14,7.9,7.08,12.05,14.4,12.5,7.53.47,14.58-3.63,15.04-11.26,1.02-17.13.32-34.36.32-52.18h11.65c-.59,5.38-1.51,10.83-1.7,16.3-.3,8.28.06,16.58-.14,24.86-.34,14.17-5.52,21.76-17.41,26-10.56,3.76-25.93-.15-32.97-8.87-2.01-2.49-3.64-5.9-3.92-9.03-.73-7.91-.51-15.91-.83-23.87-.34-8.46-.85-16.91-1.3-25.58Z"/>
      <path class="cls-1" d="M1297.33,394.65c10.51,0,21.67-.22,32.79.22,1.9.08,3.68,3,6.15,5.16-9.73,1.46-17.99.82-23.55,4.38-2.49,1.6-1.8,13.81,1.54,17.18,3.5,3.53,11.9,2.24,19.37,3.22,0,.11.13,2.41.26,4.78-7.37-.37-14.11-.7-20.63-1.03-5.24,24.59-3.08,26.97,25.23,29.56-2.54,1.6-5.06,4.53-7.63,4.56-9.86.15-19.75-.38-29.59-1.14-6.67-.51-4.1-5.37-4.05-9.38.23-18.65.1-37.3.1-57.51Z"/>
      <path class="cls-1" d="M1277.63,395.24c-11.03,23.51-21.46,45.73-32.77,69.82-10.82-24.86-20.45-46.99-30.43-69.93h17.26c5,13.52,9.55,26.29,14.65,38.85.45,1.12,6.31,1.59,6.53,1.05,5.36-12.73,10.3-25.65,15.8-39.79h8.96Z"/>
      <path class="cls-1" d="M1609.19,395.17c9.32-.58,18.67-3.99,22.24,9.93,1.82,7.1,7.43,13.23,12.75,22.2,5.71-11.41,10.52-21.01,16.06-32.09h8.17c-6.74,13.24-14.27,26.58-20.27,40.56-2.2,5.13-2.26,12.21-.7,17.67,2.07,7.27-.31,8.42-6.48,8.28-3.75-.08-7.52.48-11.27.76,12.8-28.53-8.52-45.76-20.51-67.31Z"/>
      <path class="cls-1" d="M1531.36,401.88c3.16-3.75,4.62-7,6.12-7.02,19.1-.35,38.21-.23,57.29-.23v12.64c-6.24-7.86-14.22-6.7-21.65-6.04-1.42.13-3.49,4.91-3.44,7.5.32,15.84,1.33,31.67,1.64,47.51.03,1.8-2.68,4.93-4.48,5.23-4.58.76-9.36.25-13.98.25,6.98-18.17,2.84-37.29,3.3-56.08.04-1.7-4.62-4.7-7.35-5.03-4.58-.55-9.37.56-17.46,1.27Z"/>
      <path class="cls-1" d="M1472.09,394.04v9.54c-4.97-1.92-9.78-5-14.75-5.27-3.56-.19-9.38,2.64-10.44,5.5-1.18,3.18.77,8.94,3.35,11.77,3.89,4.27,9.79,6.63,14.32,10.43,9.2,7.72,11.78,20.74,6.16,28.61-4.57,6.39-24.78,11.96-31.57,7.76-2.97-1.84-4.21-6.45-7.43-11.77,7.71,3.72,12.42,7.38,17.49,7.99,3.79.45,10.42-2.13,11.52-4.99,1.4-3.64-.21-9.99-2.88-13.24-4.06-4.93-10.44-7.87-15.31-12.24-6.19-5.56-10.71-12.88-7.36-21.07,3.31-8.1,10.22-13.21,19.87-13.04,5.41.1,10.81.02,17.04.02Z"/>
      <path class="cls-1" d="M1517.45,462.08h-22.71v-66.9h17.57c-4.11,22.16-1.66,62.09,5.15,66.9Z"/>
      <path class="cls-1" d="M1178.73,462.15v-67.01h15.74c0,19.52-.57,38.55.31,57.52.31,6.67-.15,9.71-7.41,9.1-2.79-.23-5.65.23-8.64.39Z"/>
    </g>
  </g>
</svg>